<svg xmlns="http://www.w3.org/2000/svg" width="1600" height="900" viewBox="0 0 1600 900" preserveAspectRatio="xMidYMid slice" role="img" aria-label="ethny signature field geometrie"><g fill="none" stroke="#F2EBDC" opacity="0.03" stroke-width="0.8" stroke-linecap="round" stroke-linejoin="round"><path d="M -200 0 L 700 900"/><path d="M -70 0 L 830 900"/><path d="M 60 0 L 960 900"/><path d="M 190 0 L 1090 900"/><path d="M 320 0 L 1220 900"/><path d="M 450 0 L 1350 900"/><path d="M 580 0 L 1480 900"/><path d="M 710 0 L 1610 900"/><path d="M 840 0 L 1740 900"/><path d="M 970 0 L 1870 900"/><path d="M 1100 0 L 2000 900"/><path d="M 1230 0 L 2130 900"/><path d="M 1360 0 L 2260 900"/><path d="M 1490 0 L 2390 900"/><path d="M 0 0 L -900 900"/><path d="M 130 0 L -770 900"/><path d="M 260 0 L -640 900"/><path d="M 390 0 L -510 900"/><path d="M 520 0 L -380 900"/><path d="M 650 0 L -250 900"/><path d="M 780 0 L -120 900"/><path d="M 910 0 L 10 900"/><path d="M 1040 0 L 140 900"/><path d="M 1170 0 L 270 900"/><path d="M 1300 0 L 400 900"/><path d="M 1430 0 L 530 900"/><path d="M 1560 0 L 660 900"/><path d="M 1690 0 L 790 900"/></g><g fill="none" stroke="#F2EBDC" opacity="0.06" stroke-width="1" stroke-linecap="round" stroke-linejoin="round"><path d="M 134.0 130.0 C 134.0 130.8 133.5 131.8 132.8 132.3 C 132.2 132.9 130.9 133.3 130.0 133.3 C 129.1 133.3 127.8 132.9 127.2 132.3 C 126.5 131.8 126.0 130.8 126.0 130.0 C 126.0 129.2 126.5 128.2 127.2 127.7 C 127.8 127.1 129.1 126.7 130.0 126.7 C 130.9 126.7 132.2 127.1 132.8 127.7 C 133.5 128.2 134.0 129.2 134.0 130.0 Z"/><path d="M 264.0 130.0 C 264.0 130.8 263.5 131.8 262.8 132.3 C 262.2 132.9 260.9 133.3 260.0 133.3 C 259.1 133.3 257.8 132.9 257.2 132.3 C 256.5 131.8 256.0 130.8 256.0 130.0 C 256.0 129.2 256.5 128.2 257.2 127.7 C 257.8 127.1 259.1 126.7 260.0 126.7 C 260.9 126.7 262.2 127.1 262.8 127.7 C 263.5 128.2 264.0 129.2 264.0 130.0 Z"/><path d="M 394.0 130.0 C 394.0 130.8 393.5 131.8 392.8 132.3 C 392.2 132.9 390.9 133.3 390.0 133.3 C 389.1 133.3 387.8 132.9 387.2 132.3 C 386.5 131.8 386.0 130.8 386.0 130.0 C 386.0 129.2 386.5 128.2 387.2 127.7 C 387.8 127.1 389.1 126.7 390.0 126.7 C 390.9 126.7 392.2 127.1 392.8 127.7 C 393.5 128.2 394.0 129.2 394.0 130.0 Z"/><path d="M 524.0 130.0 C 524.0 130.8 523.5 131.8 522.8 132.3 C 522.2 132.9 520.9 133.3 520.0 133.3 C 519.1 133.3 517.8 132.9 517.2 132.3 C 516.5 131.8 516.0 130.8 516.0 130.0 C 516.0 129.2 516.5 128.2 517.2 127.7 C 517.8 127.1 519.1 126.7 520.0 126.7 C 520.9 126.7 522.2 127.1 522.8 127.7 C 523.5 128.2 524.0 129.2 524.0 130.0 Z"/><path d="M 654.0 130.0 C 654.0 130.8 653.5 131.8 652.8 132.3 C 652.2 132.9 650.9 133.3 650.0 133.3 C 649.1 133.3 647.8 132.9 647.2 132.3 C 646.5 131.8 646.0 130.8 646.0 130.0 C 646.0 129.2 646.5 128.2 647.2 127.7 C 647.8 127.1 649.1 126.7 650.0 126.7 C 650.9 126.7 652.2 127.1 652.8 127.7 C 653.5 128.2 654.0 129.2 654.0 130.0 Z"/><path d="M 784.0 130.0 C 784.0 130.8 783.5 131.8 782.8 132.3 C 782.2 132.9 780.9 133.3 780.0 133.3 C 779.1 133.3 777.8 132.9 777.2 132.3 C 776.5 131.8 776.0 130.8 776.0 130.0 C 776.0 129.2 776.5 128.2 777.2 127.7 C 777.8 127.1 779.1 126.7 780.0 126.7 C 780.9 126.7 782.2 127.1 782.8 127.7 C 783.5 128.2 784.0 129.2 784.0 130.0 Z"/><path d="M 914.0 130.0 C 914.0 130.8 913.5 131.8 912.8 132.3 C 912.2 132.9 910.9 133.3 910.0 133.3 C 909.1 133.3 907.8 132.9 907.2 132.3 C 906.5 131.8 906.0 130.8 906.0 130.0 C 906.0 129.2 906.5 128.2 907.2 127.7 C 907.8 127.1 909.1 126.7 910.0 126.7 C 910.9 126.7 912.2 127.1 912.8 127.7 C 913.5 128.2 914.0 129.2 914.0 130.0 Z"/><path d="M 1044.0 130.0 C 1044.0 130.8 1043.5 131.8 1042.8 132.3 C 1042.2 132.9 1040.9 133.3 1040.0 133.3 C 1039.1 133.3 1037.8 132.9 1037.2 132.3 C 1036.5 131.8 1036.0 130.8 1036.0 130.0 C 1036.0 129.2 1036.5 128.2 1037.2 127.7 C 1037.8 127.1 1039.1 126.7 1040.0 126.7 C 1040.9 126.7 1042.2 127.1 1042.8 127.7 C 1043.5 128.2 1044.0 129.2 1044.0 130.0 Z"/><path d="M 1174.0 130.0 C 1174.0 130.8 1173.5 131.8 1172.8 132.3 C 1172.2 132.9 1170.9 133.3 1170.0 133.3 C 1169.1 133.3 1167.8 132.9 1167.2 132.3 C 1166.5 131.8 1166.0 130.8 1166.0 130.0 C 1166.0 129.2 1166.5 128.2 1167.2 127.7 C 1167.8 127.1 1169.1 126.7 1170.0 126.7 C 1170.9 126.7 1172.2 127.1 1172.8 127.7 C 1173.5 128.2 1174.0 129.2 1174.0 130.0 Z"/><path d="M 1304.0 130.0 C 1304.0 130.8 1303.5 131.8 1302.8 132.3 C 1302.2 132.9 1300.9 133.3 1300.0 133.3 C 1299.1 133.3 1297.8 132.9 1297.2 132.3 C 1296.5 131.8 1296.0 130.8 1296.0 130.0 C 1296.0 129.2 1296.5 128.2 1297.2 127.7 C 1297.8 127.1 1299.1 126.7 1300.0 126.7 C 1300.9 126.7 1302.2 127.1 1302.8 127.7 C 1303.5 128.2 1304.0 129.2 1304.0 130.0 Z"/><path d="M 1434.0 130.0 C 1434.0 130.8 1433.5 131.8 1432.8 132.3 C 1432.2 132.9 1430.9 133.3 1430.0 133.3 C 1429.1 133.3 1427.8 132.9 1427.2 132.3 C 1426.5 131.8 1426.0 130.8 1426.0 130.0 C 1426.0 129.2 1426.5 128.2 1427.2 127.7 C 1427.8 127.1 1429.1 126.7 1430.0 126.7 C 1430.9 126.7 1432.2 127.1 1432.8 127.7 C 1433.5 128.2 1434.0 129.2 1434.0 130.0 Z"/><path d="M 1564.0 130.0 C 1564.0 130.8 1563.5 131.8 1562.8 132.3 C 1562.2 132.9 1560.9 133.3 1560.0 133.3 C 1559.1 133.3 1557.8 132.9 1557.2 132.3 C 1556.5 131.8 1556.0 130.8 1556.0 130.0 C 1556.0 129.2 1556.5 128.2 1557.2 127.7 C 1557.8 127.1 1559.1 126.7 1560.0 126.7 C 1560.9 126.7 1562.2 127.1 1562.8 127.7 C 1563.5 128.2 1564.0 129.2 1564.0 130.0 Z"/><path d="M 134.0 260.0 C 134.0 260.8 133.5 261.8 132.8 262.3 C 132.2 262.9 130.9 263.3 130.0 263.3 C 129.1 263.3 127.8 262.9 127.2 262.3 C 126.5 261.8 126.0 260.8 126.0 260.0 C 126.0 259.2 126.5 258.2 127.2 257.7 C 127.8 257.1 129.1 256.7 130.0 256.7 C 130.9 256.7 132.2 257.1 132.8 257.7 C 133.5 258.2 134.0 259.2 134.0 260.0 Z"/><path d="M 264.0 260.0 C 264.0 260.8 263.5 261.8 262.8 262.3 C 262.2 262.9 260.9 263.3 260.0 263.3 C 259.1 263.3 257.8 262.9 257.2 262.3 C 256.5 261.8 256.0 260.8 256.0 260.0 C 256.0 259.2 256.5 258.2 257.2 257.7 C 257.8 257.1 259.1 256.7 260.0 256.7 C 260.9 256.7 262.2 257.1 262.8 257.7 C 263.5 258.2 264.0 259.2 264.0 260.0 Z"/><path d="M 394.0 260.0 C 394.0 260.8 393.5 261.8 392.8 262.3 C 392.2 262.9 390.9 263.3 390.0 263.3 C 389.1 263.3 387.8 262.9 387.2 262.3 C 386.5 261.8 386.0 260.8 386.0 260.0 C 386.0 259.2 386.5 258.2 387.2 257.7 C 387.8 257.1 389.1 256.7 390.0 256.7 C 390.9 256.7 392.2 257.1 392.8 257.7 C 393.5 258.2 394.0 259.2 394.0 260.0 Z"/><path d="M 524.0 260.0 C 524.0 260.8 523.5 261.8 522.8 262.3 C 522.2 262.9 520.9 263.3 520.0 263.3 C 519.1 263.3 517.8 262.9 517.2 262.3 C 516.5 261.8 516.0 260.8 516.0 260.0 C 516.0 259.2 516.5 258.2 517.2 257.7 C 517.8 257.1 519.1 256.7 520.0 256.7 C 520.9 256.7 522.2 257.1 522.8 257.7 C 523.5 258.2 524.0 259.2 524.0 260.0 Z"/><path d="M 654.0 260.0 C 654.0 260.8 653.5 261.8 652.8 262.3 C 652.2 262.9 650.9 263.3 650.0 263.3 C 649.1 263.3 647.8 262.9 647.2 262.3 C 646.5 261.8 646.0 260.8 646.0 260.0 C 646.0 259.2 646.5 258.2 647.2 257.7 C 647.8 257.1 649.1 256.7 650.0 256.7 C 650.9 256.7 652.2 257.1 652.8 257.7 C 653.5 258.2 654.0 259.2 654.0 260.0 Z"/><path d="M 784.0 260.0 C 784.0 260.8 783.5 261.8 782.8 262.3 C 782.2 262.9 780.9 263.3 780.0 263.3 C 779.1 263.3 777.8 262.9 777.2 262.3 C 776.5 261.8 776.0 260.8 776.0 260.0 C 776.0 259.2 776.5 258.2 777.2 257.7 C 777.8 257.1 779.1 256.7 780.0 256.7 C 780.9 256.7 782.2 257.1 782.8 257.7 C 783.5 258.2 784.0 259.2 784.0 260.0 Z"/><path d="M 914.0 260.0 C 914.0 260.8 913.5 261.8 912.8 262.3 C 912.2 262.9 910.9 263.3 910.0 263.3 C 909.1 263.3 907.8 262.9 907.2 262.3 C 906.5 261.8 906.0 260.8 906.0 260.0 C 906.0 259.2 906.5 258.2 907.2 257.7 C 907.8 257.1 909.1 256.7 910.0 256.7 C 910.9 256.7 912.2 257.1 912.8 257.7 C 913.5 258.2 914.0 259.2 914.0 260.0 Z"/><path d="M 1044.0 260.0 C 1044.0 260.8 1043.5 261.8 1042.8 262.3 C 1042.2 262.9 1040.9 263.3 1040.0 263.3 C 1039.1 263.3 1037.8 262.9 1037.2 262.3 C 1036.5 261.8 1036.0 260.8 1036.0 260.0 C 1036.0 259.2 1036.5 258.2 1037.2 257.7 C 1037.8 257.1 1039.1 256.7 1040.0 256.7 C 1040.9 256.7 1042.2 257.1 1042.8 257.7 C 1043.5 258.2 1044.0 259.2 1044.0 260.0 Z"/><path d="M 1174.0 260.0 C 1174.0 260.8 1173.5 261.8 1172.8 262.3 C 1172.2 262.9 1170.9 263.3 1170.0 263.3 C 1169.1 263.3 1167.8 262.9 1167.2 262.3 C 1166.5 261.8 1166.0 260.8 1166.0 260.0 C 1166.0 259.2 1166.5 258.2 1167.2 257.7 C 1167.8 257.1 1169.1 256.7 1170.0 256.7 C 1170.9 256.7 1172.2 257.1 1172.8 257.7 C 1173.5 258.2 1174.0 259.2 1174.0 260.0 Z"/><path d="M 1304.0 260.0 C 1304.0 260.8 1303.5 261.8 1302.8 262.3 C 1302.2 262.9 1300.9 263.3 1300.0 263.3 C 1299.1 263.3 1297.8 262.9 1297.2 262.3 C 1296.5 261.8 1296.0 260.8 1296.0 260.0 C 1296.0 259.2 1296.5 258.2 1297.2 257.7 C 1297.8 257.1 1299.1 256.7 1300.0 256.7 C 1300.9 256.7 1302.2 257.1 1302.8 257.7 C 1303.5 258.2 1304.0 259.2 1304.0 260.0 Z"/><path d="M 1434.0 260.0 C 1434.0 260.8 1433.5 261.8 1432.8 262.3 C 1432.2 262.9 1430.9 263.3 1430.0 263.3 C 1429.1 263.3 1427.8 262.9 1427.2 262.3 C 1426.5 261.8 1426.0 260.8 1426.0 260.0 C 1426.0 259.2 1426.5 258.2 1427.2 257.7 C 1427.8 257.1 1429.1 256.7 1430.0 256.7 C 1430.9 256.7 1432.2 257.1 1432.8 257.7 C 1433.5 258.2 1434.0 259.2 1434.0 260.0 Z"/><path d="M 1564.0 260.0 C 1564.0 260.8 1563.5 261.8 1562.8 262.3 C 1562.2 262.9 1560.9 263.3 1560.0 263.3 C 1559.1 263.3 1557.8 262.9 1557.2 262.3 C 1556.5 261.8 1556.0 260.8 1556.0 260.0 C 1556.0 259.2 1556.5 258.2 1557.2 257.7 C 1557.8 257.1 1559.1 256.7 1560.0 256.7 C 1560.9 256.7 1562.2 257.1 1562.8 257.7 C 1563.5 258.2 1564.0 259.2 1564.0 260.0 Z"/><path d="M 134.0 390.0 C 134.0 390.8 133.5 391.8 132.8 392.3 C 132.2 392.9 130.9 393.3 130.0 393.3 C 129.1 393.3 127.8 392.9 127.2 392.3 C 126.5 391.8 126.0 390.8 126.0 390.0 C 126.0 389.2 126.5 388.2 127.2 387.7 C 127.8 387.1 129.1 386.7 130.0 386.7 C 130.9 386.7 132.2 387.1 132.8 387.7 C 133.5 388.2 134.0 389.2 134.0 390.0 Z"/><path d="M 264.0 390.0 C 264.0 390.8 263.5 391.8 262.8 392.3 C 262.2 392.9 260.9 393.3 260.0 393.3 C 259.1 393.3 257.8 392.9 257.2 392.3 C 256.5 391.8 256.0 390.8 256.0 390.0 C 256.0 389.2 256.5 388.2 257.2 387.7 C 257.8 387.1 259.1 386.7 260.0 386.7 C 260.9 386.7 262.2 387.1 262.8 387.7 C 263.5 388.2 264.0 389.2 264.0 390.0 Z"/><path d="M 394.0 390.0 C 394.0 390.8 393.5 391.8 392.8 392.3 C 392.2 392.9 390.9 393.3 390.0 393.3 C 389.1 393.3 387.8 392.9 387.2 392.3 C 386.5 391.8 386.0 390.8 386.0 390.0 C 386.0 389.2 386.5 388.2 387.2 387.7 C 387.8 387.1 389.1 386.7 390.0 386.7 C 390.9 386.7 392.2 387.1 392.8 387.7 C 393.5 388.2 394.0 389.2 394.0 390.0 Z"/><path d="M 524.0 390.0 C 524.0 390.8 523.5 391.8 522.8 392.3 C 522.2 392.9 520.9 393.3 520.0 393.3 C 519.1 393.3 517.8 392.9 517.2 392.3 C 516.5 391.8 516.0 390.8 516.0 390.0 C 516.0 389.2 516.5 388.2 517.2 387.7 C 517.8 387.1 519.1 386.7 520.0 386.7 C 520.9 386.7 522.2 387.1 522.8 387.7 C 523.5 388.2 524.0 389.2 524.0 390.0 Z"/><path d="M 654.0 390.0 C 654.0 390.8 653.5 391.8 652.8 392.3 C 652.2 392.9 650.9 393.3 650.0 393.3 C 649.1 393.3 647.8 392.9 647.2 392.3 C 646.5 391.8 646.0 390.8 646.0 390.0 C 646.0 389.2 646.5 388.2 647.2 387.7 C 647.8 387.1 649.1 386.7 650.0 386.7 C 650.9 386.7 652.2 387.1 652.8 387.7 C 653.5 388.2 654.0 389.2 654.0 390.0 Z"/><path d="M 784.0 390.0 C 784.0 390.8 783.5 391.8 782.8 392.3 C 782.2 392.9 780.9 393.3 780.0 393.3 C 779.1 393.3 777.8 392.9 777.2 392.3 C 776.5 391.8 776.0 390.8 776.0 390.0 C 776.0 389.2 776.5 388.2 777.2 387.7 C 777.8 387.1 779.1 386.7 780.0 386.7 C 780.9 386.7 782.2 387.1 782.8 387.7 C 783.5 388.2 784.0 389.2 784.0 390.0 Z"/><path d="M 914.0 390.0 C 914.0 390.8 913.5 391.8 912.8 392.3 C 912.2 392.9 910.9 393.3 910.0 393.3 C 909.1 393.3 907.8 392.9 907.2 392.3 C 906.5 391.8 906.0 390.8 906.0 390.0 C 906.0 389.2 906.5 388.2 907.2 387.7 C 907.8 387.1 909.1 386.7 910.0 386.7 C 910.9 386.7 912.2 387.1 912.8 387.7 C 913.5 388.2 914.0 389.2 914.0 390.0 Z"/><path d="M 1044.0 390.0 C 1044.0 390.8 1043.5 391.8 1042.8 392.3 C 1042.2 392.9 1040.9 393.3 1040.0 393.3 C 1039.1 393.3 1037.8 392.9 1037.2 392.3 C 1036.5 391.8 1036.0 390.8 1036.0 390.0 C 1036.0 389.2 1036.5 388.2 1037.2 387.7 C 1037.8 387.1 1039.1 386.7 1040.0 386.7 C 1040.9 386.7 1042.2 387.1 1042.8 387.7 C 1043.5 388.2 1044.0 389.2 1044.0 390.0 Z"/><path d="M 1174.0 390.0 C 1174.0 390.8 1173.5 391.8 1172.8 392.3 C 1172.2 392.9 1170.9 393.3 1170.0 393.3 C 1169.1 393.3 1167.8 392.9 1167.2 392.3 C 1166.5 391.8 1166.0 390.8 1166.0 390.0 C 1166.0 389.2 1166.5 388.2 1167.2 387.7 C 1167.8 387.1 1169.1 386.7 1170.0 386.7 C 1170.9 386.7 1172.2 387.1 1172.8 387.7 C 1173.5 388.2 1174.0 389.2 1174.0 390.0 Z"/><path d="M 1304.0 390.0 C 1304.0 390.8 1303.5 391.8 1302.8 392.3 C 1302.2 392.9 1300.9 393.3 1300.0 393.3 C 1299.1 393.3 1297.8 392.9 1297.2 392.3 C 1296.5 391.8 1296.0 390.8 1296.0 390.0 C 1296.0 389.2 1296.5 388.2 1297.2 387.7 C 1297.8 387.1 1299.1 386.7 1300.0 386.7 C 1300.9 386.7 1302.2 387.1 1302.8 387.7 C 1303.5 388.2 1304.0 389.2 1304.0 390.0 Z"/><path d="M 1434.0 390.0 C 1434.0 390.8 1433.5 391.8 1432.8 392.3 C 1432.2 392.9 1430.9 393.3 1430.0 393.3 C 1429.1 393.3 1427.8 392.9 1427.2 392.3 C 1426.5 391.8 1426.0 390.8 1426.0 390.0 C 1426.0 389.2 1426.5 388.2 1427.2 387.7 C 1427.8 387.1 1429.1 386.7 1430.0 386.7 C 1430.9 386.7 1432.2 387.1 1432.8 387.7 C 1433.5 388.2 1434.0 389.2 1434.0 390.0 Z"/><path d="M 1564.0 390.0 C 1564.0 390.8 1563.5 391.8 1562.8 392.3 C 1562.2 392.9 1560.9 393.3 1560.0 393.3 C 1559.1 393.3 1557.8 392.9 1557.2 392.3 C 1556.5 391.8 1556.0 390.8 1556.0 390.0 C 1556.0 389.2 1556.5 388.2 1557.2 387.7 C 1557.8 387.1 1559.1 386.7 1560.0 386.7 C 1560.9 386.7 1562.2 387.1 1562.8 387.7 C 1563.5 388.2 1564.0 389.2 1564.0 390.0 Z"/><path d="M 134.0 520.0 C 134.0 520.8 133.5 521.8 132.8 522.3 C 132.2 522.9 130.9 523.3 130.0 523.3 C 129.1 523.3 127.8 522.9 127.2 522.3 C 126.5 521.8 126.0 520.8 126.0 520.0 C 126.0 519.2 126.5 518.2 127.2 517.7 C 127.8 517.1 129.1 516.7 130.0 516.7 C 130.9 516.7 132.2 517.1 132.8 517.7 C 133.5 518.2 134.0 519.2 134.0 520.0 Z"/><path d="M 264.0 520.0 C 264.0 520.8 263.5 521.8 262.8 522.3 C 262.2 522.9 260.9 523.3 260.0 523.3 C 259.1 523.3 257.8 522.9 257.2 522.3 C 256.5 521.8 256.0 520.8 256.0 520.0 C 256.0 519.2 256.5 518.2 257.2 517.7 C 257.8 517.1 259.1 516.7 260.0 516.7 C 260.9 516.7 262.2 517.1 262.8 517.7 C 263.5 518.2 264.0 519.2 264.0 520.0 Z"/><path d="M 394.0 520.0 C 394.0 520.8 393.5 521.8 392.8 522.3 C 392.2 522.9 390.9 523.3 390.0 523.3 C 389.1 523.3 387.8 522.9 387.2 522.3 C 386.5 521.8 386.0 520.8 386.0 520.0 C 386.0 519.2 386.5 518.2 387.2 517.7 C 387.8 517.1 389.1 516.7 390.0 516.7 C 390.9 516.7 392.2 517.1 392.8 517.7 C 393.5 518.2 394.0 519.2 394.0 520.0 Z"/><path d="M 524.0 520.0 C 524.0 520.8 523.5 521.8 522.8 522.3 C 522.2 522.9 520.9 523.3 520.0 523.3 C 519.1 523.3 517.8 522.9 517.2 522.3 C 516.5 521.8 516.0 520.8 516.0 520.0 C 516.0 519.2 516.5 518.2 517.2 517.7 C 517.8 517.1 519.1 516.7 520.0 516.7 C 520.9 516.7 522.2 517.1 522.8 517.7 C 523.5 518.2 524.0 519.2 524.0 520.0 Z"/><path d="M 654.0 520.0 C 654.0 520.8 653.5 521.8 652.8 522.3 C 652.2 522.9 650.9 523.3 650.0 523.3 C 649.1 523.3 647.8 522.9 647.2 522.3 C 646.5 521.8 646.0 520.8 646.0 520.0 C 646.0 519.2 646.5 518.2 647.2 517.7 C 647.8 517.1 649.1 516.7 650.0 516.7 C 650.9 516.7 652.2 517.1 652.8 517.7 C 653.5 518.2 654.0 519.2 654.0 520.0 Z"/><path d="M 784.0 520.0 C 784.0 520.8 783.5 521.8 782.8 522.3 C 782.2 522.9 780.9 523.3 780.0 523.3 C 779.1 523.3 777.8 522.9 777.2 522.3 C 776.5 521.8 776.0 520.8 776.0 520.0 C 776.0 519.2 776.5 518.2 777.2 517.7 C 777.8 517.1 779.1 516.7 780.0 516.7 C 780.9 516.7 782.2 517.1 782.8 517.7 C 783.5 518.2 784.0 519.2 784.0 520.0 Z"/><path d="M 914.0 520.0 C 914.0 520.8 913.5 521.8 912.8 522.3 C 912.2 522.9 910.9 523.3 910.0 523.3 C 909.1 523.3 907.8 522.9 907.2 522.3 C 906.5 521.8 906.0 520.8 906.0 520.0 C 906.0 519.2 906.5 518.2 907.2 517.7 C 907.8 517.1 909.1 516.7 910.0 516.7 C 910.9 516.7 912.2 517.1 912.8 517.7 C 913.5 518.2 914.0 519.2 914.0 520.0 Z"/><path d="M 1044.0 520.0 C 1044.0 520.8 1043.5 521.8 1042.8 522.3 C 1042.2 522.9 1040.9 523.3 1040.0 523.3 C 1039.1 523.3 1037.8 522.9 1037.2 522.3 C 1036.5 521.8 1036.0 520.8 1036.0 520.0 C 1036.0 519.2 1036.5 518.2 1037.2 517.7 C 1037.8 517.1 1039.1 516.7 1040.0 516.7 C 1040.9 516.7 1042.2 517.1 1042.8 517.7 C 1043.5 518.2 1044.0 519.2 1044.0 520.0 Z"/><path d="M 1174.0 520.0 C 1174.0 520.8 1173.5 521.8 1172.8 522.3 C 1172.2 522.9 1170.9 523.3 1170.0 523.3 C 1169.1 523.3 1167.8 522.9 1167.2 522.3 C 1166.5 521.8 1166.0 520.8 1166.0 520.0 C 1166.0 519.2 1166.5 518.2 1167.2 517.7 C 1167.8 517.1 1169.1 516.7 1170.0 516.7 C 1170.9 516.7 1172.2 517.1 1172.8 517.7 C 1173.5 518.2 1174.0 519.2 1174.0 520.0 Z"/><path d="M 1304.0 520.0 C 1304.0 520.8 1303.5 521.8 1302.8 522.3 C 1302.2 522.9 1300.9 523.3 1300.0 523.3 C 1299.1 523.3 1297.8 522.9 1297.2 522.3 C 1296.5 521.8 1296.0 520.8 1296.0 520.0 C 1296.0 519.2 1296.5 518.2 1297.2 517.7 C 1297.8 517.1 1299.1 516.7 1300.0 516.7 C 1300.9 516.7 1302.2 517.1 1302.8 517.7 C 1303.5 518.2 1304.0 519.2 1304.0 520.0 Z"/><path d="M 1434.0 520.0 C 1434.0 520.8 1433.5 521.8 1432.8 522.3 C 1432.2 522.9 1430.9 523.3 1430.0 523.3 C 1429.1 523.3 1427.8 522.9 1427.2 522.3 C 1426.5 521.8 1426.0 520.8 1426.0 520.0 C 1426.0 519.2 1426.5 518.2 1427.2 517.7 C 1427.8 517.1 1429.1 516.7 1430.0 516.7 C 1430.9 516.7 1432.2 517.1 1432.8 517.7 C 1433.5 518.2 1434.0 519.2 1434.0 520.0 Z"/><path d="M 1564.0 520.0 C 1564.0 520.8 1563.5 521.8 1562.8 522.3 C 1562.2 522.9 1560.9 523.3 1560.0 523.3 C 1559.1 523.3 1557.8 522.9 1557.2 522.3 C 1556.5 521.8 1556.0 520.8 1556.0 520.0 C 1556.0 519.2 1556.5 518.2 1557.2 517.7 C 1557.8 517.1 1559.1 516.7 1560.0 516.7 C 1560.9 516.7 1562.2 517.1 1562.8 517.7 C 1563.5 518.2 1564.0 519.2 1564.0 520.0 Z"/><path d="M 134.0 650.0 C 134.0 650.8 133.5 651.8 132.8 652.3 C 132.2 652.9 130.9 653.3 130.0 653.3 C 129.1 653.3 127.8 652.9 127.2 652.3 C 126.5 651.8 126.0 650.8 126.0 650.0 C 126.0 649.2 126.5 648.2 127.2 647.7 C 127.8 647.1 129.1 646.7 130.0 646.7 C 130.9 646.7 132.2 647.1 132.8 647.7 C 133.5 648.2 134.0 649.2 134.0 650.0 Z"/><path d="M 264.0 650.0 C 264.0 650.8 263.5 651.8 262.8 652.3 C 262.2 652.9 260.9 653.3 260.0 653.3 C 259.1 653.3 257.8 652.9 257.2 652.3 C 256.5 651.8 256.0 650.8 256.0 650.0 C 256.0 649.2 256.5 648.2 257.2 647.7 C 257.8 647.1 259.1 646.7 260.0 646.7 C 260.9 646.7 262.2 647.1 262.8 647.7 C 263.5 648.2 264.0 649.2 264.0 650.0 Z"/><path d="M 394.0 650.0 C 394.0 650.8 393.5 651.8 392.8 652.3 C 392.2 652.9 390.9 653.3 390.0 653.3 C 389.1 653.3 387.8 652.9 387.2 652.3 C 386.5 651.8 386.0 650.8 386.0 650.0 C 386.0 649.2 386.5 648.2 387.2 647.7 C 387.8 647.1 389.1 646.7 390.0 646.7 C 390.9 646.7 392.2 647.1 392.8 647.7 C 393.5 648.2 394.0 649.2 394.0 650.0 Z"/><path d="M 524.0 650.0 C 524.0 650.8 523.5 651.8 522.8 652.3 C 522.2 652.9 520.9 653.3 520.0 653.3 C 519.1 653.3 517.8 652.9 517.2 652.3 C 516.5 651.8 516.0 650.8 516.0 650.0 C 516.0 649.2 516.5 648.2 517.2 647.7 C 517.8 647.1 519.1 646.7 520.0 646.7 C 520.9 646.7 522.2 647.1 522.8 647.7 C 523.5 648.2 524.0 649.2 524.0 650.0 Z"/><path d="M 654.0 650.0 C 654.0 650.8 653.5 651.8 652.8 652.3 C 652.2 652.9 650.9 653.3 650.0 653.3 C 649.1 653.3 647.8 652.9 647.2 652.3 C 646.5 651.8 646.0 650.8 646.0 650.0 C 646.0 649.2 646.5 648.2 647.2 647.7 C 647.8 647.1 649.1 646.7 650.0 646.7 C 650.9 646.7 652.2 647.1 652.8 647.7 C 653.5 648.2 654.0 649.2 654.0 650.0 Z"/><path d="M 784.0 650.0 C 784.0 650.8 783.5 651.8 782.8 652.3 C 782.2 652.9 780.9 653.3 780.0 653.3 C 779.1 653.3 777.8 652.9 777.2 652.3 C 776.5 651.8 776.0 650.8 776.0 650.0 C 776.0 649.2 776.5 648.2 777.2 647.7 C 777.8 647.1 779.1 646.7 780.0 646.7 C 780.9 646.7 782.2 647.1 782.8 647.7 C 783.5 648.2 784.0 649.2 784.0 650.0 Z"/><path d="M 914.0 650.0 C 914.0 650.8 913.5 651.8 912.8 652.3 C 912.2 652.9 910.9 653.3 910.0 653.3 C 909.1 653.3 907.8 652.9 907.2 652.3 C 906.5 651.8 906.0 650.8 906.0 650.0 C 906.0 649.2 906.5 648.2 907.2 647.7 C 907.8 647.1 909.1 646.7 910.0 646.7 C 910.9 646.7 912.2 647.1 912.8 647.7 C 913.5 648.2 914.0 649.2 914.0 650.0 Z"/><path d="M 1044.0 650.0 C 1044.0 650.8 1043.5 651.8 1042.8 652.3 C 1042.2 652.9 1040.9 653.3 1040.0 653.3 C 1039.1 653.3 1037.8 652.9 1037.2 652.3 C 1036.5 651.8 1036.0 650.8 1036.0 650.0 C 1036.0 649.2 1036.5 648.2 1037.2 647.7 C 1037.8 647.1 1039.1 646.7 1040.0 646.7 C 1040.9 646.7 1042.2 647.1 1042.8 647.7 C 1043.5 648.2 1044.0 649.2 1044.0 650.0 Z"/><path d="M 1174.0 650.0 C 1174.0 650.8 1173.5 651.8 1172.8 652.3 C 1172.2 652.9 1170.9 653.3 1170.0 653.3 C 1169.1 653.3 1167.8 652.9 1167.2 652.3 C 1166.5 651.8 1166.0 650.8 1166.0 650.0 C 1166.0 649.2 1166.5 648.2 1167.2 647.7 C 1167.8 647.1 1169.1 646.7 1170.0 646.7 C 1170.9 646.7 1172.2 647.1 1172.8 647.7 C 1173.5 648.2 1174.0 649.2 1174.0 650.0 Z"/><path d="M 1304.0 650.0 C 1304.0 650.8 1303.5 651.8 1302.8 652.3 C 1302.2 652.9 1300.9 653.3 1300.0 653.3 C 1299.1 653.3 1297.8 652.9 1297.2 652.3 C 1296.5 651.8 1296.0 650.8 1296.0 650.0 C 1296.0 649.2 1296.5 648.2 1297.2 647.7 C 1297.8 647.1 1299.1 646.7 1300.0 646.7 C 1300.9 646.7 1302.2 647.1 1302.8 647.7 C 1303.5 648.2 1304.0 649.2 1304.0 650.0 Z"/><path d="M 1434.0 650.0 C 1434.0 650.8 1433.5 651.8 1432.8 652.3 C 1432.2 652.9 1430.9 653.3 1430.0 653.3 C 1429.1 653.3 1427.8 652.9 1427.2 652.3 C 1426.5 651.8 1426.0 650.8 1426.0 650.0 C 1426.0 649.2 1426.5 648.2 1427.2 647.7 C 1427.8 647.1 1429.1 646.7 1430.0 646.7 C 1430.9 646.7 1432.2 647.1 1432.8 647.7 C 1433.5 648.2 1434.0 649.2 1434.0 650.0 Z"/><path d="M 1564.0 650.0 C 1564.0 650.8 1563.5 651.8 1562.8 652.3 C 1562.2 652.9 1560.9 653.3 1560.0 653.3 C 1559.1 653.3 1557.8 652.9 1557.2 652.3 C 1556.5 651.8 1556.0 650.8 1556.0 650.0 C 1556.0 649.2 1556.5 648.2 1557.2 647.7 C 1557.8 647.1 1559.1 646.7 1560.0 646.7 C 1560.9 646.7 1562.2 647.1 1562.8 647.7 C 1563.5 648.2 1564.0 649.2 1564.0 650.0 Z"/><path d="M 134.0 780.0 C 134.0 780.8 133.5 781.8 132.8 782.3 C 132.2 782.9 130.9 783.3 130.0 783.3 C 129.1 783.3 127.8 782.9 127.2 782.3 C 126.5 781.8 126.0 780.8 126.0 780.0 C 126.0 779.2 126.5 778.2 127.2 777.7 C 127.8 777.1 129.1 776.7 130.0 776.7 C 130.9 776.7 132.2 777.1 132.8 777.7 C 133.5 778.2 134.0 779.2 134.0 780.0 Z"/><path d="M 264.0 780.0 C 264.0 780.8 263.5 781.8 262.8 782.3 C 262.2 782.9 260.9 783.3 260.0 783.3 C 259.1 783.3 257.8 782.9 257.2 782.3 C 256.5 781.8 256.0 780.8 256.0 780.0 C 256.0 779.2 256.5 778.2 257.2 777.7 C 257.8 777.1 259.1 776.7 260.0 776.7 C 260.9 776.7 262.2 777.1 262.8 777.7 C 263.5 778.2 264.0 779.2 264.0 780.0 Z"/><path d="M 394.0 780.0 C 394.0 780.8 393.5 781.8 392.8 782.3 C 392.2 782.9 390.9 783.3 390.0 783.3 C 389.1 783.3 387.8 782.9 387.2 782.3 C 386.5 781.8 386.0 780.8 386.0 780.0 C 386.0 779.2 386.5 778.2 387.2 777.7 C 387.8 777.1 389.1 776.7 390.0 776.7 C 390.9 776.7 392.2 777.1 392.8 777.7 C 393.5 778.2 394.0 779.2 394.0 780.0 Z"/><path d="M 524.0 780.0 C 524.0 780.8 523.5 781.8 522.8 782.3 C 522.2 782.9 520.9 783.3 520.0 783.3 C 519.1 783.3 517.8 782.9 517.2 782.3 C 516.5 781.8 516.0 780.8 516.0 780.0 C 516.0 779.2 516.5 778.2 517.2 777.7 C 517.8 777.1 519.1 776.7 520.0 776.7 C 520.9 776.7 522.2 777.1 522.8 777.7 C 523.5 778.2 524.0 779.2 524.0 780.0 Z"/><path d="M 654.0 780.0 C 654.0 780.8 653.5 781.8 652.8 782.3 C 652.2 782.9 650.9 783.3 650.0 783.3 C 649.1 783.3 647.8 782.9 647.2 782.3 C 646.5 781.8 646.0 780.8 646.0 780.0 C 646.0 779.2 646.5 778.2 647.2 777.7 C 647.8 777.1 649.1 776.7 650.0 776.7 C 650.9 776.7 652.2 777.1 652.8 777.7 C 653.5 778.2 654.0 779.2 654.0 780.0 Z"/><path d="M 784.0 780.0 C 784.0 780.8 783.5 781.8 782.8 782.3 C 782.2 782.9 780.9 783.3 780.0 783.3 C 779.1 783.3 777.8 782.9 777.2 782.3 C 776.5 781.8 776.0 780.8 776.0 780.0 C 776.0 779.2 776.5 778.2 777.2 777.7 C 777.8 777.1 779.1 776.7 780.0 776.7 C 780.9 776.7 782.2 777.1 782.8 777.7 C 783.5 778.2 784.0 779.2 784.0 780.0 Z"/><path d="M 914.0 780.0 C 914.0 780.8 913.5 781.8 912.8 782.3 C 912.2 782.9 910.9 783.3 910.0 783.3 C 909.1 783.3 907.8 782.9 907.2 782.3 C 906.5 781.8 906.0 780.8 906.0 780.0 C 906.0 779.2 906.5 778.2 907.2 777.7 C 907.8 777.1 909.1 776.7 910.0 776.7 C 910.9 776.7 912.2 777.1 912.8 777.7 C 913.5 778.2 914.0 779.2 914.0 780.0 Z"/><path d="M 1044.0 780.0 C 1044.0 780.8 1043.5 781.8 1042.8 782.3 C 1042.2 782.9 1040.9 783.3 1040.0 783.3 C 1039.1 783.3 1037.8 782.9 1037.2 782.3 C 1036.5 781.8 1036.0 780.8 1036.0 780.0 C 1036.0 779.2 1036.5 778.2 1037.2 777.7 C 1037.8 777.1 1039.1 776.7 1040.0 776.7 C 1040.9 776.7 1042.2 777.1 1042.8 777.7 C 1043.5 778.2 1044.0 779.2 1044.0 780.0 Z"/><path d="M 1174.0 780.0 C 1174.0 780.8 1173.5 781.8 1172.8 782.3 C 1172.2 782.9 1170.9 783.3 1170.0 783.3 C 1169.1 783.3 1167.8 782.9 1167.2 782.3 C 1166.5 781.8 1166.0 780.8 1166.0 780.0 C 1166.0 779.2 1166.5 778.2 1167.2 777.7 C 1167.8 777.1 1169.1 776.7 1170.0 776.7 C 1170.9 776.7 1172.2 777.1 1172.8 777.7 C 1173.5 778.2 1174.0 779.2 1174.0 780.0 Z"/><path d="M 1304.0 780.0 C 1304.0 780.8 1303.5 781.8 1302.8 782.3 C 1302.2 782.9 1300.9 783.3 1300.0 783.3 C 1299.1 783.3 1297.8 782.9 1297.2 782.3 C 1296.5 781.8 1296.0 780.8 1296.0 780.0 C 1296.0 779.2 1296.5 778.2 1297.2 777.7 C 1297.8 777.1 1299.1 776.7 1300.0 776.7 C 1300.9 776.7 1302.2 777.1 1302.8 777.7 C 1303.5 778.2 1304.0 779.2 1304.0 780.0 Z"/><path d="M 1434.0 780.0 C 1434.0 780.8 1433.5 781.8 1432.8 782.3 C 1432.2 782.9 1430.9 783.3 1430.0 783.3 C 1429.1 783.3 1427.8 782.9 1427.2 782.3 C 1426.5 781.8 1426.0 780.8 1426.0 780.0 C 1426.0 779.2 1426.5 778.2 1427.2 777.7 C 1427.8 777.1 1429.1 776.7 1430.0 776.7 C 1430.9 776.7 1432.2 777.1 1432.8 777.7 C 1433.5 778.2 1434.0 779.2 1434.0 780.0 Z"/><path d="M 1564.0 780.0 C 1564.0 780.8 1563.5 781.8 1562.8 782.3 C 1562.2 782.9 1560.9 783.3 1560.0 783.3 C 1559.1 783.3 1557.8 782.9 1557.2 782.3 C 1556.5 781.8 1556.0 780.8 1556.0 780.0 C 1556.0 779.2 1556.5 778.2 1557.2 777.7 C 1557.8 777.1 1559.1 776.7 1560.0 776.7 C 1560.9 776.7 1562.2 777.1 1562.8 777.7 C 1563.5 778.2 1564.0 779.2 1564.0 780.0 Z"/></g></svg>
