<svg xmlns="http://www.w3.org/2000/svg" width="1600" height="900" viewBox="0 0 1600 900" preserveAspectRatio="xMidYMid slice" role="img" aria-label="ethny signature field minimal"><g fill="none" stroke="#F2EBDC" opacity="0.05" stroke-width="1" stroke-linecap="round" stroke-linejoin="round"><path d="M -20 220 L 0 226.7 L 40 225.7 L 80 224.6 L 120 223.4 L 160 222.2 L 200 221.0 L 240 219.7 L 280 218.5 L 320 217.3 L 360 216.1 L 400 215.0 L 440 213.9 L 480 213.0 L 520 212.1 L 560 211.4 L 600 210.8 L 640 210.4 L 680 210.1 L 720 210.0 L 760 210.0 L 800 210.2 L 840 210.6 L 880 211.1 L 920 211.7 L 960 212.5 L 1000 213.3 L 1040 214.3 L 1080 215.4 L 1120 216.6 L 1160 217.8 L 1200 219.0 L 1240 220.3 L 1280 221.5 L 1320 222.7 L 1360 223.9 L 1400 225.0 L 1440 226.1 L 1480 227.0 L 1520 227.9 L 1560 228.6 L 1600 229.2 "/><path d="M -20 390 L 0 380.6 L 40 380.3 L 80 380.1 L 120 380.0 L 160 380.1 L 200 380.4 L 240 380.8 L 280 381.4 L 320 382.1 L 360 382.9 L 400 383.8 L 440 384.9 L 480 386.0 L 520 387.2 L 560 388.4 L 600 389.6 L 640 390.9 L 680 392.1 L 720 393.3 L 760 394.5 L 800 395.6 L 840 396.6 L 880 397.5 L 920 398.2 L 960 398.9 L 1000 399.4 L 1040 399.7 L 1080 399.9 L 1120 400.0 L 1160 399.9 L 1200 399.6 L 1240 399.2 L 1280 398.6 L 1320 397.9 L 1360 397.1 L 1400 396.2 L 1440 395.1 L 1480 394.0 L 1520 392.8 L 1560 391.6 L 1600 390.4 "/><path d="M -20 560 L 0 551.0 L 40 551.6 L 80 552.4 L 120 553.3 L 160 554.2 L 200 555.3 L 240 556.5 L 280 557.7 L 320 558.9 L 360 560.1 L 400 561.4 L 440 562.6 L 480 563.8 L 520 564.9 L 560 566.0 L 600 566.9 L 640 567.8 L 680 568.5 L 720 569.1 L 760 569.6 L 800 569.8 L 840 570.0 L 880 570.0 L 920 569.8 L 960 569.5 L 1000 569.0 L 1040 568.4 L 1080 567.6 L 1120 566.7 L 1160 565.8 L 1200 564.7 L 1240 563.5 L 1280 562.3 L 1320 561.1 L 1360 559.9 L 1400 558.6 L 1440 557.4 L 1480 556.2 L 1520 555.1 L 1560 554.0 L 1600 553.1 "/><path d="M -20 730 L 0 737.2 L 40 738.0 L 80 738.7 L 120 739.2 L 160 739.7 L 200 739.9 L 240 740.0 L 280 739.9 L 320 739.7 L 360 739.3 L 400 738.8 L 440 738.2 L 480 737.4 L 520 736.5 L 560 735.5 L 600 734.4 L 640 733.2 L 680 732.0 L 720 730.8 L 760 729.5 L 800 728.3 L 840 727.0 L 880 725.9 L 920 724.8 L 960 723.7 L 1000 722.8 L 1040 722.0 L 1080 721.3 L 1120 720.8 L 1160 720.3 L 1200 720.1 L 1240 720.0 L 1280 720.1 L 1320 720.3 L 1360 720.7 L 1400 721.2 L 1440 721.8 L 1480 722.6 L 1520 723.5 L 1560 724.5 L 1600 725.6 "/></g></svg>
