<svg xmlns="http://www.w3.org/2000/svg" width="1600" height="900" viewBox="0 0 1600 900" preserveAspectRatio="xMidYMid slice" role="img" aria-label="ethny signature field vegetal"><g fill="none" stroke="#F2EBDC" opacity="0.03" stroke-width="0.8" stroke-linecap="round" stroke-linejoin="round"><path d="M -20 140 L 0 141.4 L 40 140.0 L 80 138.6 L 120 137.3 L 160 136.0 L 200 134.9 L 240 133.9 L 280 133.1 L 320 132.5 L 360 132.1 L 400 132.0 L 440 132.1 L 480 132.4 L 520 133.0 L 560 133.8 L 600 134.7 L 640 135.8 L 680 137.0 L 720 138.4 L 760 139.7 L 800 141.1 L 840 142.5 L 880 143.7 L 920 144.9 L 960 145.9 L 1000 146.8 L 1040 147.4 L 1080 147.8 L 1120 148.0 L 1160 147.9 L 1200 147.6 L 1240 147.1 L 1280 146.4 L 1320 145.5 L 1360 144.4 L 1400 143.2 L 1440 141.9 L 1480 140.5 L 1520 139.1 L 1560 137.8 L 1600 136.5 "/><path d="M -20 270 L 0 265.3 L 40 266.5 L 80 267.8 L 120 269.2 L 160 270.6 L 200 271.9 L 240 273.2 L 280 274.4 L 320 275.5 L 360 276.4 L 400 277.2 L 440 277.7 L 480 277.9 L 520 278.0 L 560 277.8 L 600 277.4 L 640 276.7 L 680 275.9 L 720 274.9 L 760 273.7 L 800 272.4 L 840 271.1 L 880 269.7 L 920 268.3 L 960 267.0 L 1000 265.8 L 1040 264.7 L 1080 263.7 L 1120 263.0 L 1160 262.4 L 1200 262.1 L 1240 262.0 L 1280 262.2 L 1320 262.5 L 1360 263.1 L 1400 264.0 L 1440 264.9 L 1480 266.1 L 1520 267.3 L 1560 268.7 L 1600 270.1 "/><path d="M -20 400 L 0 401.9 L 40 400.5 L 80 399.1 L 120 397.8 L 160 396.5 L 200 395.3 L 240 394.2 L 280 393.4 L 320 392.7 L 360 392.2 L 400 392.0 L 440 392.0 L 480 392.3 L 520 392.8 L 560 393.5 L 600 394.4 L 640 395.4 L 680 396.6 L 720 397.9 L 760 399.3 L 800 400.6 L 840 402.0 L 880 403.3 L 920 404.5 L 960 405.6 L 1000 406.5 L 1040 407.2 L 1080 407.7 L 1120 408.0 L 1160 408.0 L 1200 407.8 L 1240 407.3 L 1280 406.7 L 1320 405.8 L 1360 404.8 L 1400 403.6 L 1440 402.3 L 1480 401.0 L 1520 399.6 L 1560 398.2 L 1600 396.9 "/><path d="M -20 530 L 0 527.5 L 40 526.3 L 80 525.1 L 120 524.1 L 160 523.2 L 200 522.6 L 240 522.2 L 280 522.0 L 320 522.1 L 360 522.4 L 400 522.9 L 440 523.6 L 480 524.5 L 520 525.6 L 560 526.8 L 600 528.1 L 640 529.5 L 680 530.9 L 720 532.2 L 760 533.5 L 800 534.7 L 840 535.7 L 880 536.6 L 920 537.3 L 960 537.7 L 1000 538.0 L 1040 538.0 L 1080 537.7 L 1120 537.2 L 1160 536.5 L 1200 535.7 L 1240 534.6 L 1280 533.4 L 1320 532.1 L 1360 530.7 L 1400 529.4 L 1440 528.0 L 1480 526.7 L 1520 525.5 L 1560 524.4 L 1600 523.5 "/><path d="M -20 660 L 0 654.6 L 40 653.7 L 80 652.9 L 120 652.4 L 160 652.1 L 200 652.0 L 240 652.2 L 280 652.5 L 320 653.2 L 360 654.0 L 400 655.0 L 440 656.1 L 480 657.4 L 520 658.7 L 560 660.1 L 600 661.5 L 640 662.8 L 680 664.0 L 720 665.2 L 760 666.1 L 800 666.9 L 840 667.5 L 880 667.9 L 920 668.0 L 960 667.9 L 1000 667.5 L 1040 667.0 L 1080 666.2 L 1120 665.2 L 1160 664.1 L 1200 662.9 L 1240 661.5 L 1280 660.2 L 1320 658.8 L 1360 657.4 L 1400 656.2 L 1440 655.0 L 1480 654.0 L 1520 653.2 L 1560 652.6 L 1600 652.2 "/><path d="M -20 790 L 0 790.3 L 40 791.7 L 80 793.0 L 120 794.2 L 160 795.3 L 200 796.3 L 240 797.0 L 280 797.6 L 320 797.9 L 360 798.0 L 400 797.8 L 440 797.5 L 480 796.9 L 520 796.0 L 560 795.1 L 600 793.9 L 640 792.7 L 680 791.3 L 720 789.9 L 760 788.6 L 800 787.2 L 840 786.0 L 880 784.9 L 920 783.9 L 960 783.1 L 1000 782.5 L 1040 782.1 L 1080 782.0 L 1120 782.1 L 1160 782.5 L 1200 783.0 L 1240 783.8 L 1280 784.8 L 1320 785.9 L 1360 787.1 L 1400 788.4 L 1440 789.8 L 1480 791.2 L 1520 792.5 L 1560 793.8 L 1600 794.9 "/></g><g fill="none" stroke="#F2EBDC" opacity="0.07" stroke-width="1.1" stroke-linecap="round" stroke-linejoin="round"><path d="M 300 654.1301966551691 C 288 567.0650983275846 312 392.93490167241544 300 305.86980334483087"/><path d="M 300 596.1 Q 228.5 538.9 157.0 496.0"/><path d="M 300 538.0 Q 370.8 481.4 441.7 438.9"/><path d="M 300 480.0 Q 256.9 445.5 213.8 419.7"/><path d="M 300 422.0 Q 340.4 389.7 380.8 365.4"/><path d="M 300 363.9 Q 256.6 329.2 213.2 303.2"/><path d="M 900 443.92209821380675 C 888 351.9610491069034 912 168.03895089309663 900 76.07790178619325"/><path d="M 900 382.6 Q 819.4 318.2 738.9 269.8"/><path d="M 900 321.3 Q 975.4 261.0 1050.7 215.8"/><path d="M 900 260.0 Q 840.4 212.3 780.8 176.5"/><path d="M 900 198.7 Q 940.9 166.0 981.8 141.4"/><path d="M 900 137.4 Q 842.2 91.2 784.5 56.5"/><path d="M 1300 792.5613545672968 C 1288 706.2806772836484 1312 533.7193227163516 1300 447.4386454327032"/><path d="M 1300 735.0 Q 1244.0 690.3 1188.0 656.7"/><path d="M 1300 677.5 Q 1342.2 643.7 1384.5 618.4"/><path d="M 1300 620.0 Q 1260.6 588.5 1221.2 564.9"/><path d="M 1300 562.5 Q 1336.1 533.6 1372.1 512.0"/><path d="M 1300 505.0 Q 1249.6 464.6 1199.1 434.4"/><path d="M 640 873.6364558478817 C 628 796.8182279239409 652 643.1817720760591 640 566.3635441521183"/><path d="M 640 822.4 Q 576.5 771.6 513.0 733.5"/><path d="M 640 771.2 Q 687.3 733.3 734.7 704.9"/><path d="M 640 720.0 Q 590.5 680.4 541.1 650.7"/><path d="M 640 668.8 Q 678.2 638.2 716.5 615.2"/><path d="M 640 617.6 Q 594.8 581.4 549.5 554.2"/></g></svg>
