<svg xmlns="http://www.w3.org/2000/svg" width="1600" height="900" viewBox="0 0 1600 900" role="img" aria-label="ethny official background topographie"><rect width="1600" height="900" fill="#1C3B34"/><g fill="none" stroke="#F2EBDC" opacity="0.03" stroke-width="0.8" stroke-linecap="round" stroke-linejoin="round"><path d="M 300 -20 L 292.2 -20 L 292.1 20 L 293.4 60 L 295.8 100 L 299.0 140 L 302.3 180 L 305.2 220 L 307.2 260 L 308.0 300 L 307.4 340 L 305.5 380 L 302.6 420 L 299.3 460 L 296.2 500 L 293.6 540 L 292.2 580 L 292.1 620 L 293.4 660 L 295.8 700 L 299.0 740 L 302.3 780 L 305.2 820 L 307.2 860 L 308.0 900 "/><path d="M 600 -20 L 602.0 -20 L 598.7 20 L 595.6 60 L 593.3 100 L 592.1 140 L 592.3 180 L 593.8 220 L 596.4 260 L 599.6 300 L 602.9 340 L 605.7 380 L 607.5 420 L 608.0 460 L 607.1 500 L 605.0 540 L 602.0 580 L 598.7 620 L 595.6 660 L 593.3 700 L 592.1 740 L 592.3 780 L 593.8 820 L 596.4 860 L 599.6 900 "/><path d="M 900 -20 L 907.7 -20 L 907.9 20 L 906.8 60 L 904.5 100 L 901.4 140 L 898.0 180 L 895.1 220 L 892.9 260 L 892.0 300 L 892.5 340 L 894.3 380 L 897.0 420 L 900.3 460 L 903.5 500 L 906.1 540 L 907.7 580 L 907.9 620 L 906.8 660 L 904.5 700 L 901.4 740 L 898.0 780 L 895.1 820 L 892.9 860 L 892.0 900 "/><path d="M 1200 -20 L 1197.7 -20 L 1201.0 20 L 1204.1 60 L 1206.5 100 L 1207.9 140 L 1207.8 180 L 1206.4 220 L 1203.9 260 L 1200.7 300 L 1197.4 340 L 1194.6 380 L 1192.6 420 L 1192.0 460 L 1192.7 500 L 1194.7 540 L 1197.7 580 L 1201.0 620 L 1204.1 660 L 1206.5 700 L 1207.9 740 L 1207.8 780 L 1206.4 820 L 1203.9 860 L 1200.7 900 "/><path d="M 1500 -20 L 1492.4 -20 L 1492.0 20 L 1493.0 60 L 1495.3 100 L 1498.3 140 L 1501.6 180 L 1504.7 220 L 1506.9 260 L 1508.0 300 L 1507.6 340 L 1506.0 380 L 1503.3 420 L 1500.0 460 L 1496.8 500 L 1494.1 540 L 1492.4 580 L 1492.0 620 L 1493.0 660 L 1495.3 700 L 1498.3 740 L 1501.6 780 L 1504.7 820 L 1506.9 860 L 1508.0 900 "/><path d="M -20 300 L -20 292.1 L 20 292.0 L 60 292.4 L 100 293.3 L 140 294.4 L 180 295.9 L 220 297.7 L 260 299.5 L 300 301.4 L 340 303.2 L 380 304.8 L 420 306.2 L 460 307.2 L 500 307.8 L 540 308.0 L 580 307.7 L 620 307.1 L 660 306.0 L 700 304.6 L 740 302.9 L 780 301.1 L 820 299.2 L 860 297.4 L 900 295.7 L 940 294.2 L 980 293.1 L 1020 292.4 L 1060 292.0 L 1100 292.1 L 1140 292.7 L 1180 293.6 L 1220 294.9 L 1260 296.5 L 1300 298.3 L 1340 300.1 L 1380 302.0 L 1420 303.8 L 1460 305.3 L 1500 306.6 L 1540 307.4 L 1580 307.9 L 1620 308.0 "/><path d="M -20 600 L -20 601.3 L 20 599.4 L 60 597.6 L 100 595.9 L 140 594.4 L 180 593.2 L 220 592.4 L 260 592.0 L 300 592.1 L 340 592.6 L 380 593.5 L 420 594.8 L 460 596.3 L 500 598.1 L 540 600.0 L 580 601.8 L 620 603.6 L 660 605.2 L 700 606.4 L 740 607.4 L 780 607.9 L 820 608.0 L 860 607.6 L 900 606.8 L 940 605.7 L 980 604.2 L 1020 602.5 L 1060 600.7 L 1100 598.8 L 1140 597.0 L 1180 595.3 L 1220 593.9 L 1260 592.9 L 1300 592.2 L 1340 592.0 L 1380 592.2 L 1420 592.9 L 1460 593.9 L 1500 595.3 L 1540 596.9 L 1580 598.7 L 1620 600.6 "/></g><g fill="none" stroke="#F2EBDC" opacity="0.07" stroke-width="1.2" stroke-linecap="round" stroke-linejoin="round"><path d="M 397.5 345.2 C 386.4 349.7 362.2 354.9 355.3 349.1 C 348.4 343.3 356.6 319.3 356.1 310.2 C 355.6 301.2 352.4 301.2 352.1 295.0 C 351.8 288.7 349.3 278.5 354.3 272.6 C 359.3 266.7 370.5 261.5 382.1 259.5 C 393.6 257.6 413.2 255.2 423.6 260.8 C 434.1 266.4 445.3 282.7 445.0 292.9 C 444.7 303.0 429.8 313.1 421.9 321.8 C 413.9 330.5 408.6 340.6 397.5 345.2 Z"/><path d="M 394.6 345.4 C 380.4 352.6 353.1 372.9 340.1 369.4 C 327.0 365.8 320.4 338.0 316.3 324.1 C 312.3 310.1 309.9 295.5 315.6 285.6 C 321.2 275.7 338.4 269.3 350.0 264.5 C 361.5 259.6 373.6 255.7 384.9 256.5 C 396.2 257.3 404.3 263.0 417.8 269.3 C 431.4 275.5 465.0 284.7 466.2 294.1 C 467.4 303.6 436.9 317.5 425.0 326.1 C 413.0 334.6 408.7 338.1 394.6 345.4 Z"/><path d="M 404.0 393.4 C 381.8 396.2 354.0 381.8 333.2 371.8 C 312.5 361.7 286.8 349.2 279.3 333.1 C 271.9 317.1 282.2 294.5 288.7 275.5 C 295.3 256.5 300.9 229.3 318.6 219.1 C 336.3 208.9 369.2 212.1 394.9 214.1 C 420.7 216.2 458.2 217.6 473.2 231.5 C 488.3 245.3 486.5 276.5 485.3 297.2 C 484.1 317.8 479.5 339.3 466.0 355.3 C 452.4 371.4 426.1 390.7 404.0 393.4 Z"/><path d="M 402.2 414.8 C 377.0 417.6 344.3 395.3 319.9 382.1 C 295.5 368.8 268.1 355.9 255.7 335.1 C 243.2 314.4 236.7 281.7 245.1 257.6 C 253.5 233.5 278.7 203.2 305.9 190.5 C 333.1 177.7 376.9 175.4 408.1 181.2 C 439.3 186.9 472.2 204.7 493.0 224.9 C 513.9 245.1 536.8 278.9 533.1 302.2 C 529.4 325.5 492.7 346.0 470.8 364.7 C 449.0 383.5 427.4 411.9 402.2 414.8 Z"/><path d="M 396.3 424.2 C 360.7 428.6 310.4 433.2 283.3 418.3 C 256.1 403.4 241.5 363.4 233.3 334.8 C 225.1 306.3 222.2 273.9 234.1 247.1 C 246.0 220.4 273.4 189.0 304.7 174.3 C 336.1 159.6 387.5 151.5 422.4 159.1 C 457.3 166.7 492.1 194.6 514.1 219.6 C 536.1 244.7 557.2 280.9 554.4 309.6 C 551.5 338.4 523.2 373.0 496.9 392.1 C 470.6 411.2 431.9 419.9 396.3 424.2 Z"/><path d="M 392.0 471.0 C 350.7 471.5 301.3 444.7 268.9 422.1 C 236.6 399.5 210.1 368.4 197.8 335.3 C 185.5 302.2 176.8 252.9 194.9 223.6 C 213.0 194.3 265.5 173.8 306.2 159.5 C 347.0 145.2 397.7 130.2 439.4 137.8 C 481.1 145.4 533.4 174.8 556.4 205.0 C 579.5 235.2 584.2 283.4 577.6 319.1 C 571.0 354.7 547.6 393.7 516.7 419.0 C 485.7 444.3 433.3 470.4 392.0 471.0 Z"/><path d="M 1163.1 586.3 C 1158.5 593.7 1144.4 598.6 1132.3 602.3 C 1120.1 606.0 1101.6 612.5 1090.2 608.8 C 1078.8 605.0 1064.0 589.3 1063.9 579.9 C 1063.7 570.5 1086.5 563.9 1089.4 552.5 C 1092.3 541.2 1075.5 515.4 1081.3 511.8 C 1087.1 508.2 1108.7 529.9 1124.1 531.0 C 1139.5 532.2 1167.6 514.0 1173.5 518.5 C 1179.5 523.0 1161.6 546.8 1159.8 558.1 C 1158.1 569.4 1167.7 578.9 1163.1 586.3 Z"/><path d="M 1199.4 613.7 C 1187.8 627.3 1158.7 639.5 1138.3 640.9 C 1117.9 642.3 1093.1 631.6 1077.2 622.1 C 1061.2 612.6 1048.5 598.0 1042.4 583.8 C 1036.4 569.6 1034.9 550.5 1041.0 537.1 C 1047.1 523.6 1063.3 512.7 1079.2 503.2 C 1095.1 493.7 1121.9 475.8 1136.3 479.9 C 1150.8 484.0 1153.8 514.7 1165.7 528.0 C 1177.6 541.2 1202.1 545.1 1207.7 559.4 C 1213.3 573.7 1211.0 600.1 1199.4 613.7 Z"/><path d="M 1200.2 619.9 C 1180.6 631.7 1157.3 630.2 1132.3 635.3 C 1107.3 640.3 1071.5 657.7 1050.3 650.2 C 1029.1 642.6 1010.3 610.6 1005.2 589.9 C 1000.1 569.3 1007.9 542.4 1019.9 526.2 C 1031.9 510.0 1056.0 503.1 1077.0 492.7 C 1098.0 482.2 1123.6 461.9 1145.8 463.6 C 1167.9 465.4 1192.6 486.3 1210.0 503.1 C 1227.4 519.9 1251.5 544.9 1249.9 564.4 C 1248.3 583.9 1219.8 608.1 1200.2 619.9 Z"/><path d="M 1209.1 633.6 C 1189.5 649.9 1159.5 663.8 1130.9 667.4 C 1102.4 671.1 1062.3 668.4 1037.9 655.3 C 1013.6 642.3 993.9 613.9 984.8 589.2 C 975.8 564.6 972.4 532.1 983.7 507.3 C 995.0 482.6 1023.5 451.5 1052.8 440.5 C 1082.0 429.6 1126.7 433.8 1159.3 441.6 C 1191.9 449.3 1233.5 465.6 1248.3 487.0 C 1263.1 508.3 1254.8 545.2 1248.3 569.6 C 1241.8 594.1 1228.6 617.3 1209.1 633.6 Z"/><path d="M 1230.5 661.0 C 1205.7 683.2 1164.0 708.1 1126.2 711.6 C 1088.3 715.1 1034.2 702.0 1003.5 681.9 C 972.8 661.7 949.0 622.5 942.2 590.8 C 935.4 559.0 944.7 520.1 962.6 491.1 C 980.6 462.2 1015.1 427.2 1049.9 417.1 C 1084.7 407.1 1136.6 419.0 1171.4 431.0 C 1206.2 443.0 1241.4 464.7 1258.7 489.2 C 1275.9 513.7 1279.7 549.4 1275.0 578.1 C 1270.3 606.7 1255.4 638.7 1230.5 661.0 Z"/><path d="M 1252.5 694.0 C 1220.4 717.2 1159.1 732.3 1116.6 729.3 C 1074.0 726.3 1032.6 699.6 997.2 676.1 C 961.7 652.5 914.7 623.1 903.7 588.2 C 892.6 553.4 905.4 496.5 931.0 467.0 C 956.6 437.5 1013.1 423.2 1057.4 411.3 C 1101.7 399.4 1157.5 383.9 1196.8 395.5 C 1236.2 407.1 1275.0 448.5 1293.7 480.9 C 1312.4 513.3 1315.9 554.5 1309.0 590.0 C 1302.2 625.5 1284.6 670.7 1252.5 694.0 Z"/><path d="M 1258.1 714.9 C 1217.6 741.1 1152.7 766.4 1103.5 762.9 C 1054.2 759.5 998.1 724.8 962.7 694.4 C 927.4 664.0 898.0 620.8 891.4 580.3 C 884.7 539.8 895.9 486.6 922.8 451.7 C 949.8 416.8 1004.0 382.7 1053.0 370.8 C 1102.0 358.8 1172.0 362.2 1216.8 380.2 C 1261.6 398.1 1300.2 441.0 1321.8 478.6 C 1343.5 516.2 1357.4 566.4 1346.7 605.7 C 1336.1 645.1 1298.7 688.7 1258.1 714.9 Z"/><path d="M 881.3 203.1 C 880.0 215.0 867.4 239.9 855.5 241.5 C 843.5 243.1 826.2 216.6 809.6 212.6 C 793.0 208.6 766.2 223.5 755.8 217.3 C 745.4 211.0 745.7 188.9 747.0 175.1 C 748.3 161.3 752.5 141.5 763.8 134.4 C 775.1 127.4 798.3 133.6 814.7 133.0 C 831.0 132.3 853.7 124.3 861.8 130.5 C 869.8 136.7 859.8 158.2 863.0 170.3 C 866.3 182.4 882.5 191.2 881.3 203.1 Z"/><path d="M 898.6 213.6 C 891.3 228.0 873.0 248.1 856.3 251.9 C 839.5 255.8 814.4 243.2 798.2 236.5 C 782.0 229.8 769.1 222.7 759.0 211.8 C 748.9 200.9 739.7 187.4 737.6 171.0 C 735.5 154.7 733.1 121.9 746.3 113.9 C 759.5 105.9 797.1 120.1 817.0 123.0 C 837.0 125.8 852.1 123.9 865.9 131.0 C 879.7 138.1 894.5 151.8 900.0 165.5 C 905.4 179.3 905.9 199.2 898.6 213.6 Z"/><path d="M 910.0 223.3 C 896.2 242.0 883.4 266.4 861.2 275.0 C 839.0 283.6 799.6 283.4 776.9 275.0 C 754.2 266.5 741.1 243.7 724.8 224.3 C 708.5 204.9 676.7 179.4 679.2 158.8 C 681.7 138.1 716.2 115.3 739.8 100.5 C 763.4 85.6 794.1 69.4 821.0 69.7 C 847.8 69.9 880.5 86.5 901.0 102.0 C 921.5 117.5 942.4 142.6 943.9 162.8 C 945.4 183.1 923.8 204.6 910.0 223.3 Z"/><path d="M 942.2 245.8 C 921.3 268.2 894.0 289.4 863.3 298.2 C 832.6 306.9 785.9 309.4 758.0 298.3 C 730.0 287.1 711.1 256.1 695.6 231.4 C 680.0 206.6 660.0 176.3 664.6 149.9 C 669.1 123.5 695.2 91.1 722.7 73.1 C 750.2 55.0 793.9 40.8 829.7 41.6 C 865.4 42.4 910.8 57.5 937.4 77.8 C 963.9 98.1 988.2 135.7 989.0 163.7 C 989.9 191.7 963.2 223.4 942.2 245.8 Z"/><path d="M 953.5 260.0 C 929.6 287.5 902.0 326.1 866.6 334.8 C 831.1 343.4 774.3 328.5 741.0 311.9 C 707.7 295.4 683.8 264.8 666.6 235.6 C 649.4 206.4 628.2 165.5 637.8 136.8 C 647.4 108.0 690.6 79.9 724.2 62.9 C 757.7 45.8 803.3 30.6 839.1 34.5 C 875.0 38.3 910.8 63.5 939.2 86.1 C 967.7 108.6 1007.6 140.5 1009.9 169.5 C 1012.3 198.5 977.4 232.4 953.5 260.0 Z"/><path d="M 988.5 292.0 C 962.5 321.1 906.7 344.7 860.8 352.4 C 814.9 360.0 755.1 355.5 713.3 337.8 C 671.4 320.1 624.4 281.6 609.8 246.1 C 595.1 210.7 608.4 160.7 625.3 125.0 C 642.3 89.3 673.4 52.5 711.6 32.0 C 749.8 11.5 808.0 -2.5 854.4 1.9 C 900.9 6.4 963.3 29.4 990.4 58.6 C 1017.5 87.8 1017.6 138.3 1017.3 177.2 C 1017.0 216.1 1014.6 262.8 988.5 292.0 Z"/><path d="M 1285.7 319.4 C 1280.6 307.2 1276.1 289.2 1282.7 280.1 C 1289.2 271.0 1311.3 273.3 1325.0 264.8 C 1338.7 256.2 1350.5 230.1 1365.0 228.8 C 1379.5 227.5 1398.6 245.3 1411.9 257.1 C 1425.3 268.9 1444.6 285.2 1445.1 299.7 C 1445.6 314.3 1429.0 336.8 1414.8 344.3 C 1400.6 351.8 1376.8 343.3 1359.8 344.8 C 1342.8 346.3 1325.3 357.3 1312.9 353.1 C 1300.6 348.8 1290.7 331.6 1285.7 319.4 Z"/><path d="M 1244.3 327.0 C 1238.1 310.1 1247.0 283.3 1258.2 268.6 C 1269.4 253.9 1291.7 249.7 1311.5 238.8 C 1331.2 227.9 1353.8 203.2 1376.5 203.2 C 1399.3 203.2 1434.7 221.9 1448.0 238.7 C 1461.3 255.5 1462.0 285.9 1456.2 304.1 C 1450.3 322.2 1428.6 336.1 1412.8 347.5 C 1397.0 358.8 1380.9 368.2 1361.3 372.0 C 1341.7 375.8 1314.7 377.6 1295.2 370.1 C 1275.7 362.6 1250.5 344.0 1244.3 327.0 Z"/><path d="M 1220.5 327.4 C 1213.9 302.5 1211.2 272.0 1223.3 250.4 C 1235.4 228.7 1265.6 208.5 1293.2 197.6 C 1320.8 186.7 1359.4 179.4 1388.9 185.2 C 1418.5 191.0 1458.1 211.5 1470.5 232.2 C 1482.9 252.8 1468.8 285.4 1463.4 309.0 C 1458.0 332.6 1455.6 358.7 1438.3 373.8 C 1421.0 388.8 1388.7 395.2 1359.5 399.5 C 1330.3 403.8 1286.3 411.7 1263.2 399.7 C 1240.0 387.7 1227.2 352.3 1220.5 327.4 Z"/><path d="M 1173.6 329.7 C 1168.4 299.9 1188.1 262.6 1207.4 236.8 C 1226.7 211.0 1256.7 187.0 1289.6 174.9 C 1322.5 162.9 1370.3 156.0 1405.0 164.4 C 1439.8 172.8 1478.7 199.3 1498.0 225.3 C 1517.4 251.4 1526.8 290.5 1521.3 320.7 C 1515.9 350.9 1493.2 388.6 1465.3 406.5 C 1437.5 424.5 1392.2 426.9 1354.4 428.3 C 1316.6 429.8 1268.7 431.7 1238.6 415.3 C 1208.4 398.9 1178.8 359.4 1173.6 329.7 Z"/><path d="M 1171.5 322.5 C 1167.7 289.0 1174.9 249.7 1195.1 222.9 C 1215.3 196.1 1254.8 174.4 1292.8 161.6 C 1330.8 148.8 1383.1 136.7 1423.0 146.2 C 1462.9 155.6 1515.9 187.9 1531.9 218.2 C 1548.0 248.4 1530.3 294.2 1519.4 327.7 C 1508.5 361.1 1495.3 398.2 1466.4 419.0 C 1437.5 439.9 1387.4 451.9 1345.9 452.7 C 1304.4 453.5 1246.5 445.6 1217.5 423.8 C 1188.4 402.1 1175.2 356.0 1171.5 322.5 Z"/><path d="M 1119.4 319.4 C 1112.6 281.4 1134.5 229.0 1162.5 195.8 C 1190.5 162.6 1241.4 130.4 1287.7 120.3 C 1333.9 110.2 1394.6 119.2 1440.0 135.2 C 1485.4 151.3 1537.5 181.2 1560.1 216.5 C 1582.7 251.7 1589.6 308.9 1575.5 346.5 C 1561.4 384.2 1515.7 420.5 1475.5 442.3 C 1435.3 464.2 1379.7 480.5 1334.4 477.4 C 1289.0 474.3 1239.2 450.3 1203.4 424.0 C 1167.5 397.6 1126.2 357.5 1119.4 319.4 Z"/><path d="M 1095.6 311.0 C 1092.8 269.0 1125.9 218.1 1158.5 181.7 C 1191.2 145.3 1241.0 102.8 1291.5 92.5 C 1342.1 82.1 1412.1 99.0 1462.1 119.6 C 1512.0 140.2 1571.4 176.4 1591.0 216.1 C 1610.6 255.8 1596.9 314.5 1579.8 357.6 C 1562.7 400.7 1531.8 451.0 1488.5 474.9 C 1445.2 498.7 1372.2 507.6 1320.0 500.7 C 1267.8 493.8 1212.8 465.1 1175.5 433.5 C 1138.1 401.9 1098.5 352.9 1095.6 311.0 Z"/></g></svg>
