<svg xmlns="http://www.w3.org/2000/svg" width="1600" height="900" viewBox="0 0 1600 900" role="img" aria-label="ethny official background exploration"><rect width="1600" height="900" fill="#1C3B34"/><g fill="none" stroke="#F2EBDC" opacity="0.05" stroke-width="1" stroke-linecap="round" stroke-linejoin="round"><path d="M 260 -20 L 268.2 -20 L 265.2 20 L 261.2 60 L 257.1 100 L 253.5 140 L 250.9 180 L 250.0 220 L 250.8 260 L 253.2 300 L 256.7 340 L 260.9 380 L 264.8 420 L 268.0 460 L 269.7 500 L 269.8 540 L 268.2 580 L 265.2 620 L 261.2 660 L 257.1 700 L 253.5 740 L 250.9 780 L 250.0 820 L 250.8 860 L 253.2 900 "/><path d="M 520 -20 L 510.1 -20 L 510.4 20 L 512.3 60 L 515.6 100 L 519.6 140 L 523.7 180 L 527.2 220 L 529.4 260 L 530.0 300 L 528.8 340 L 526.2 380 L 522.5 420 L 518.3 460 L 514.4 500 L 511.5 540 L 510.1 580 L 510.4 620 L 512.3 660 L 515.6 700 L 519.6 740 L 523.7 780 L 527.2 820 L 529.4 860 L 530.0 900 "/><path d="M 780 -20 L 786.3 -20 L 788.9 20 L 790.0 60 L 789.4 100 L 787.1 140 L 783.6 180 L 779.5 220 L 775.5 260 L 772.3 300 L 770.4 340 L 770.1 380 L 771.6 420 L 774.5 460 L 778.4 500 L 782.5 540 L 786.3 580 L 788.9 620 L 790.0 660 L 789.4 700 L 787.1 740 L 783.6 780 L 779.5 820 L 775.5 860 L 772.3 900 "/><path d="M 1040 -20 L 1040.8 -20 L 1036.6 20 L 1033.1 60 L 1030.8 100 L 1030.0 140 L 1031.0 180 L 1033.5 220 L 1037.2 260 L 1041.3 300 L 1045.2 340 L 1048.3 380 L 1049.8 420 L 1049.7 460 L 1047.9 500 L 1044.8 540 L 1040.8 580 L 1036.6 620 L 1033.1 660 L 1030.8 700 L 1030.0 740 L 1031.0 780 L 1033.5 820 L 1037.2 860 L 1041.3 900 "/><path d="M 1300 -20 L 1292.6 -20 L 1296.0 20 L 1300.1 60 L 1304.1 100 L 1307.5 140 L 1309.5 180 L 1309.9 220 L 1308.6 260 L 1305.8 300 L 1302.0 340 L 1297.8 380 L 1294.0 420 L 1291.3 460 L 1290.0 500 L 1290.5 540 L 1292.6 580 L 1296.0 620 L 1300.1 660 L 1304.1 700 L 1307.5 740 L 1309.5 780 L 1309.9 820 L 1308.6 860 L 1305.8 900 "/><path d="M 1560 -20 L 1570.0 -20 L 1569.2 20 L 1566.8 60 L 1563.2 100 L 1559.1 140 L 1555.1 180 L 1552.0 220 L 1550.2 260 L 1550.2 300 L 1551.9 340 L 1554.9 380 L 1558.9 420 L 1563.0 460 L 1566.6 500 L 1569.1 540 L 1570.0 580 L 1569.2 620 L 1566.8 660 L 1563.2 700 L 1559.1 740 L 1555.1 780 L 1552.0 820 L 1550.2 860 L 1550.2 900 "/><path d="M -20 260 L -20 267.6 L 20 265.9 L 60 263.9 L 100 261.6 L 140 259.3 L 180 257.0 L 220 254.8 L 260 253.0 L 300 251.5 L 340 250.5 L 380 250.0 L 420 250.1 L 460 250.7 L 500 251.9 L 540 253.5 L 580 255.4 L 620 257.6 L 660 259.9 L 700 262.3 L 740 264.5 L 780 266.4 L 820 268.1 L 860 269.2 L 900 269.9 L 940 270.0 L 980 269.5 L 1020 268.6 L 1060 267.1 L 1100 265.3 L 1140 263.1 L 1180 260.8 L 1220 258.5 L 1260 256.2 L 1300 254.2 L 1340 252.4 L 1380 251.1 L 1420 250.3 L 1460 250.0 L 1500 250.3 L 1540 251.1 L 1580 252.4 L 1620 254.1 "/><path d="M -20 520 L -20 510.0 L 20 510.2 L 60 510.9 L 100 512.1 L 140 513.7 L 180 515.7 L 220 517.9 L 260 520.3 L 300 522.6 L 340 524.8 L 380 526.7 L 420 528.2 L 460 529.3 L 500 529.9 L 540 529.9 L 580 529.4 L 620 528.4 L 660 526.9 L 700 525.0 L 740 522.8 L 780 520.5 L 820 518.2 L 860 515.9 L 900 513.9 L 940 512.2 L 980 511.0 L 1020 510.2 L 1060 510.0 L 1100 510.3 L 1140 511.2 L 1180 512.6 L 1220 514.3 L 1260 516.4 L 1300 518.7 L 1340 521.1 L 1380 523.3 L 1420 525.5 L 1460 527.3 L 1500 528.7 L 1540 529.6 L 1580 530.0 L 1620 529.8 "/><path d="M -20 780 L -20 786.9 L 20 788.4 L 60 789.5 L 100 790.0 L 140 789.9 L 180 789.3 L 220 788.2 L 260 786.6 L 300 784.7 L 340 782.5 L 380 780.2 L 420 777.8 L 460 775.6 L 500 773.6 L 540 772.0 L 580 770.8 L 620 770.2 L 660 770.0 L 700 770.4 L 740 771.4 L 780 772.8 L 820 774.6 L 860 776.7 L 900 779.0 L 940 781.4 L 980 783.7 L 1020 785.7 L 1060 787.5 L 1100 788.8 L 1140 789.7 L 1180 790.0 L 1220 789.8 L 1260 789.0 L 1300 787.7 L 1340 786.0 L 1380 784.0 L 1420 781.7 L 1460 779.4 L 1500 777.1 L 1540 774.9 L 1580 773.1 L 1620 771.6 "/></g><g fill="none" stroke="#F2EBDC" opacity="0.08" stroke-width="1.4" stroke-linecap="round" stroke-linejoin="round"><path d="M -20 120 L 0 102.0 L 40 104.9 L 80 108.8 L 120 113.5 L 160 118.6 L 200 123.8 L 240 128.7 L 280 133.1 L 320 136.6 L 360 138.9 L 400 140.0 L 440 139.7 L 480 138.0 L 520 135.2 L 560 131.3 L 600 126.7 L 640 121.6 L 680 116.3 L 720 111.4 L 760 107.0 L 800 103.5 L 840 101.1 L 880 100.0 L 920 100.3 L 960 101.9 L 1000 104.7 L 1040 108.6 L 1080 113.2 L 1120 118.3 L 1160 123.5 L 1200 128.5 L 1240 132.9 L 1280 136.4 L 1320 138.8 L 1360 139.9 L 1400 139.7 L 1440 138.2 L 1480 135.4 L 1520 131.5 L 1560 126.9 L 1600 121.8 "/><path d="M -20 225 L 0 234.6 L 40 231.3 L 80 227.6 L 120 223.9 L 160 220.2 L 200 216.7 L 240 213.6 L 280 211.1 L 320 209.2 L 360 208.0 L 400 207.7 L 440 208.1 L 480 209.4 L 520 211.4 L 560 214.0 L 600 217.1 L 640 220.6 L 680 224.4 L 720 228.1 L 760 231.7 L 800 235.0 L 840 237.8 L 880 240.0 L 920 241.5 L 960 242.3 L 1000 242.2 L 1040 241.3 L 1080 239.7 L 1120 237.3 L 1160 234.4 L 1200 231.0 L 1240 227.4 L 1280 223.6 L 1320 219.9 L 1360 216.5 L 1400 213.4 L 1440 210.9 L 1480 209.1 L 1520 208.0 L 1560 207.7 L 1600 208.2 "/><path d="M -20 330 L 0 311.5 L 40 315.2 L 80 320.0 L 120 325.5 L 160 331.4 L 200 337.1 L 240 342.4 L 280 346.7 L 320 349.8 L 360 351.4 L 400 351.5 L 440 350.0 L 480 347.0 L 520 342.8 L 560 337.6 L 600 331.9 L 640 326.0 L 680 320.5 L 720 315.6 L 760 311.8 L 800 309.3 L 840 308.4 L 880 309.0 L 920 311.2 L 960 314.7 L 1000 319.4 L 1040 324.8 L 1080 330.7 L 1120 336.5 L 1160 341.8 L 1200 346.2 L 1240 349.5 L 1280 351.3 L 1320 351.6 L 1360 350.2 L 1400 347.4 L 1440 343.3 L 1480 338.3 L 1520 332.6 L 1560 326.7 L 1600 321.1 "/><path d="M -20 435 L 0 416.0 L 40 418.6 L 80 421.9 L 120 425.9 L 160 430.2 L 200 434.8 L 240 439.4 L 280 443.8 L 320 447.7 L 360 451.2 L 400 453.8 L 440 455.7 L 480 456.6 L 520 456.5 L 560 455.5 L 600 453.5 L 640 450.8 L 680 447.3 L 720 443.2 L 760 438.8 L 800 434.2 L 840 429.6 L 880 425.3 L 920 421.5 L 960 418.2 L 1000 415.7 L 1040 414.0 L 1080 413.3 L 1120 413.6 L 1160 414.8 L 1200 417.0 L 1240 419.9 L 1280 423.6 L 1320 427.7 L 1360 432.2 L 1400 436.8 L 1440 441.3 L 1480 445.6 L 1520 449.3 L 1560 452.4 L 1600 454.8 "/><path d="M -20 540 L 0 541.3 L 40 545.7 L 80 549.9 L 120 553.5 L 160 556.4 L 200 558.5 L 240 559.6 L 280 559.7 L 320 558.7 L 360 556.8 L 400 554.1 L 440 550.6 L 480 546.5 L 520 542.1 L 560 537.6 L 600 533.2 L 640 529.2 L 680 525.7 L 720 523.0 L 760 521.2 L 800 520.3 L 840 520.5 L 880 521.6 L 920 523.8 L 960 526.7 L 1000 530.4 L 1040 534.5 L 1080 539.0 L 1120 543.5 L 1160 547.8 L 1200 551.7 L 1240 555.0 L 1280 557.5 L 1320 559.1 L 1360 559.8 L 1400 559.4 L 1440 557.9 L 1480 555.6 L 1520 552.5 L 1560 548.7 L 1600 544.4 "/><path d="M -20 645 L 0 630.0 L 40 629.0 L 80 628.8 L 120 629.2 L 160 630.2 L 200 631.9 L 240 634.2 L 280 636.9 L 320 640.0 L 360 643.2 L 400 646.6 L 440 649.8 L 480 652.9 L 520 655.6 L 560 657.9 L 600 659.7 L 640 660.8 L 680 661.2 L 720 661.0 L 760 660.1 L 800 658.5 L 840 656.4 L 880 653.8 L 920 650.8 L 960 647.6 L 1000 644.3 L 1040 641.0 L 1080 637.8 L 1120 635.0 L 1160 632.6 L 1200 630.7 L 1240 629.4 L 1280 628.8 L 1320 628.9 L 1360 629.6 L 1400 631.0 L 1440 633.0 L 1480 635.5 L 1520 638.4 L 1560 641.6 L 1600 644.9 "/><path d="M -20 750 L 0 764.7 L 40 762.1 L 80 758.8 L 120 754.8 L 160 750.5 L 200 746.2 L 240 742.1 L 280 738.6 L 320 735.9 L 360 734.1 L 400 733.4 L 440 733.8 L 480 735.4 L 520 738.0 L 560 741.3 L 600 745.3 L 640 749.6 L 680 753.9 L 720 758.0 L 760 761.5 L 800 764.2 L 840 765.9 L 880 766.6 L 920 766.1 L 960 764.5 L 1000 762.0 L 1040 758.6 L 1080 754.6 L 1120 750.3 L 1160 746.0 L 1200 741.9 L 1240 738.4 L 1280 735.7 L 1320 734.0 L 1360 733.4 L 1400 733.9 L 1440 735.5 L 1480 738.1 L 1520 741.5 L 1560 745.5 L 1600 749.8 "/></g><g fill="none" stroke="#F2EBDC" opacity="0.03" stroke-width="0.8" stroke-linecap="round" stroke-linejoin="round"><path d="M -20 200 L 0 199.0 L 40 197.3 L 80 195.9 L 120 195.1 L 160 195.0 L 200 195.6 L 240 196.9 L 280 198.5 L 320 200.4 L 360 202.2 L 400 203.7 L 440 204.7 L 480 205.0 L 520 204.6 L 560 203.6 L 600 202.1 L 640 200.3 L 680 198.4 L 720 196.8 L 760 195.6 L 800 195.0 L 840 195.2 L 880 196.0 L 920 197.4 L 960 199.1 L 1000 201.0 L 1040 202.7 L 1080 204.1 L 1120 204.9 L 1160 205.0 L 1200 204.4 L 1240 203.1 L 1280 201.5 L 1320 199.6 L 1360 197.8 L 1400 196.3 L 1440 195.3 L 1480 195.0 L 1520 195.4 L 1560 196.4 L 1600 197.9 "/><path d="M -20 350 L 0 355.0 L 40 354.5 L 80 353.5 L 120 351.9 L 160 350.1 L 200 348.2 L 240 346.6 L 280 345.5 L 320 345.0 L 360 345.2 L 400 346.1 L 440 347.5 L 480 349.3 L 520 351.2 L 560 352.9 L 600 354.2 L 640 354.9 L 680 354.9 L 720 354.3 L 760 353.0 L 800 351.3 L 840 349.4 L 880 347.6 L 920 346.2 L 960 345.3 L 1000 345.0 L 1040 345.5 L 1080 346.5 L 1120 348.1 L 1160 349.9 L 1200 351.8 L 1240 353.4 L 1280 354.5 L 1320 355.0 L 1360 354.8 L 1400 353.9 L 1440 352.5 L 1480 350.7 L 1520 348.8 L 1560 347.1 L 1600 345.8 "/><path d="M -20 500 L 0 495.2 L 40 495.0 L 80 495.5 L 120 496.6 L 160 498.2 L 200 500.1 L 240 501.9 L 280 503.5 L 320 504.6 L 360 505.0 L 400 504.7 L 440 503.8 L 480 502.4 L 520 500.6 L 560 498.7 L 600 497.0 L 640 495.7 L 680 495.1 L 720 495.1 L 760 495.8 L 800 497.1 L 840 498.8 L 880 500.7 L 920 502.5 L 960 503.9 L 1000 504.8 L 1040 505.0 L 1080 504.5 L 1120 503.4 L 1160 501.8 L 1200 499.9 L 1240 498.1 L 1280 496.5 L 1320 495.4 L 1360 495.0 L 1400 495.3 L 1440 496.2 L 1480 497.6 L 1520 499.4 L 1560 501.3 L 1600 503.0 "/><path d="M -20 650 L 0 650.9 L 40 649.0 L 80 647.3 L 120 645.9 L 160 645.1 L 200 645.0 L 240 645.7 L 280 646.9 L 320 648.5 L 360 650.4 L 400 652.2 L 440 653.7 L 480 654.7 L 520 655.0 L 560 654.6 L 600 653.6 L 640 652.1 L 680 650.2 L 720 648.4 L 760 646.8 L 800 645.6 L 840 645.0 L 880 645.2 L 920 646.0 L 960 647.4 L 1000 649.1 L 1040 651.0 L 1080 652.7 L 1120 654.1 L 1160 654.9 L 1200 655.0 L 1240 654.3 L 1280 653.1 L 1320 651.5 L 1360 649.6 L 1400 647.8 L 1440 646.3 L 1480 645.3 L 1520 645.0 L 1560 645.4 L 1600 646.4 "/><path d="M -20 800 L 0 797.1 L 40 798.8 L 80 800.7 L 120 802.4 L 160 803.9 L 200 804.8 L 240 805.0 L 280 804.5 L 320 803.4 L 360 801.8 L 400 800.0 L 440 798.1 L 480 796.6 L 520 795.5 L 560 795.0 L 600 795.3 L 640 796.2 L 680 797.6 L 720 799.4 L 760 801.3 L 800 803.0 L 840 804.2 L 880 804.9 L 920 804.9 L 960 804.2 L 1000 802.9 L 1040 801.2 L 1080 799.3 L 1120 797.6 L 1160 796.1 L 1200 795.2 L 1240 795.0 L 1280 795.5 L 1320 796.6 L 1360 798.2 L 1400 800.0 L 1440 801.9 L 1480 803.4 L 1520 804.5 L 1560 805.0 L 1600 804.7 "/></g><g fill="none" stroke="#F2EBDC" opacity="0.05" stroke-width="1" stroke-linecap="round" stroke-linejoin="round"><path d="M 1233.1 301.6 C 1217.6 301.0 1197.2 300.4 1190.2 293.0 C 1183.1 285.6 1192.3 267.9 1190.7 257.3 C 1189.2 246.7 1178.6 239.1 1180.7 229.2 C 1182.8 219.3 1191.4 204.7 1203.4 198.1 C 1215.4 191.5 1238.3 186.2 1252.8 189.6 C 1267.4 192.9 1282.8 206.8 1290.5 218.1 C 1298.2 229.3 1300.4 244.1 1299.1 257.2 C 1297.9 270.3 1293.7 289.3 1282.7 296.7 C 1271.7 304.1 1248.5 302.3 1233.1 301.6 Z"/><path d="M 1229.9 308.7 C 1212.0 306.2 1199.1 302.6 1183.7 295.1 C 1168.3 287.5 1140.2 275.7 1137.5 263.3 C 1134.8 250.8 1156.6 232.7 1167.5 220.3 C 1178.5 207.9 1187.4 195.6 1203.0 188.9 C 1218.6 182.1 1242.7 176.4 1261.2 180.0 C 1279.8 183.5 1305.5 196.4 1314.4 210.2 C 1323.3 223.9 1318.7 245.8 1314.8 262.4 C 1310.9 279.0 1305.2 302.1 1291.0 309.8 C 1276.9 317.5 1247.8 311.1 1229.9 308.7 Z"/><path d="M 1224.4 338.8 C 1198.6 338.8 1160.3 338.4 1144.5 325.3 C 1128.7 312.3 1129.7 280.4 1129.5 260.2 C 1129.4 240.0 1133.1 222.1 1143.8 204.2 C 1154.5 186.3 1172.7 158.1 1193.7 152.9 C 1214.7 147.7 1245.5 164.4 1269.8 172.9 C 1294.1 181.5 1325.5 187.3 1339.7 204.1 C 1353.8 220.8 1361.4 253.3 1354.6 273.5 C 1347.9 293.7 1321.1 314.5 1299.4 325.3 C 1277.7 336.2 1250.2 338.8 1224.4 338.8 Z"/><path d="M 1215.7 365.1 C 1188.2 363.0 1157.5 341.9 1137.0 324.1 C 1116.5 306.3 1095.6 281.6 1092.5 258.3 C 1089.4 234.9 1101.5 204.6 1118.5 184.0 C 1135.5 163.5 1165.7 141.4 1194.5 134.9 C 1223.4 128.5 1266.7 133.2 1291.8 145.3 C 1316.9 157.4 1331.8 184.7 1345.0 207.6 C 1358.3 230.6 1378.4 261.3 1371.3 282.8 C 1364.1 304.3 1327.9 323.2 1302.0 336.9 C 1276.0 350.6 1243.2 367.2 1215.7 365.1 Z"/><path d="M 1203.9 390.3 C 1169.3 384.5 1136.3 358.1 1111.7 335.3 C 1087.2 312.4 1059.3 282.2 1056.6 253.3 C 1054.0 224.4 1072.2 184.5 1095.6 161.8 C 1119.1 139.1 1162.0 121.8 1197.5 116.9 C 1233.0 112.0 1277.6 118.4 1308.4 132.4 C 1339.3 146.5 1370.1 174.4 1382.7 201.1 C 1395.2 227.8 1394.3 264.4 1383.7 292.6 C 1373.1 320.8 1349.1 353.8 1319.1 370.1 C 1289.2 386.4 1238.5 396.1 1203.9 390.3 Z"/></g></svg>
