<svg xmlns="http://www.w3.org/2000/svg" viewBox="0 0 200 200"><rect width="200" height="200" rx="44" ry="44" fill="#1C3B34"></rect><path d="M 52.7 70 A 56 56 0 0 1 147.3 70.0" fill="none" stroke="#F2EBDC" stroke-width="1.4" stroke-linecap="round"></path><path d="M 52.7 130 A 56 56 0 0 0 147.3 130.0" fill="none" stroke="#F2EBDC" stroke-width="1.4" stroke-linecap="round"></path><g fill="#F2EBDC"><g transform="translate(36.08,110.87) scale(0.056338)"><path d="M227 12Q165 12 121.5 -15Q78 -42 56 -86.5Q34 -131 34 -181Q34 -241 62.5 -289Q91 -337 140.5 -366Q190 -395 253 -395Q311 -395 343.5 -366.5Q376 -338 376 -280Q376 -267 374 -259.5Q372 -252 365 -252H288Q291 -311 273.5 -343Q256 -375 217 -375Q171 -375 144.5 -333.5Q118 -292 118 -222Q118 -164 136 -121Q154 -78 189 -54Q224 -30 275 -30Q307 -30 328 -39Q349 -48 373 -61Q375 -63 378.5 -58.5Q382 -54 380 -51Q343 -17 306 -2.5Q269 12 227 12ZM91 -251 90 -267 313 -271V-252Z M604 12Q580 12 556.5 4Q533 -4 518 -23Q503 -42 503 -75V-304Q503 -326 498.5 -338Q494 -350 483 -354.5Q472 -359 452 -359Q448 -359 448 -366.5Q448 -374 452 -374Q498 -375 526.5 -396Q555 -417 565 -454Q566 -457 573 -457Q580 -457 580 -454V-109Q580 -68 600.5 -49.5Q621 -31 655 -31Q679 -31 699.5 -40.5Q720 -50 734 -60Q737 -63 741 -58.5Q745 -54 741 -51Q704 -18 672 -3Q640 12 604 12ZM710 -336Q670 -346 633 -349Q596 -352 554 -352V-376Q594 -376 632.5 -379Q671 -382 714 -386Q716 -386 718.5 -379Q721 -372 721 -362Q721 -353 717.5 -344Q714 -335 710 -336Z M783 0Q781 0 781 -6Q781 -12 783 -12Q818 -12 830 -26Q842 -40 842 -81V-593Q842 -628 835.5 -644Q829 -660 811 -660Q797 -660 770 -647Q766 -646 763.5 -651.5Q761 -657 763 -659L900 -724Q902 -725 902.5 -725Q903 -725 904 -725Q909 -725 913 -721.5Q917 -718 917 -714V-81Q917 -40 928.5 -26Q940 -12 975 -12Q979 -12 979 -6Q979 0 975 0Q956 0 932 -1Q908 -2 880 -2Q852 -2 827 -1Q802 0 783 0ZM1052 0Q1050 0 1050 -6Q1050 -12 1052 -12Q1087 -12 1099 -26Q1111 -40 1111 -81V-232Q1111 -343 1024 -343Q990 -343 955.5 -324Q921 -305 899 -273L894 -285Q933 -339 977 -368Q1021 -397 1070 -397Q1125 -397 1155.5 -364Q1186 -331 1186 -274V-81Q1186 -40 1197.5 -26Q1209 -12 1244 -12Q1248 -12 1248 -6Q1248 0 1244 0Q1225 0 1201 -1Q1177 -2 1149 -2Q1121 -2 1096 -1Q1071 0 1052 0Z M1580 0Q1577 0 1577 -6Q1577 -12 1580 -12Q1615 -12 1626 -26Q1637 -40 1637 -81V-234Q1637 -291 1616.5 -317.5Q1596 -344 1551 -344Q1518 -344 1483.5 -325Q1449 -306 1426 -273L1421 -285Q1461 -340 1504.5 -369Q1548 -398 1597 -398Q1653 -398 1683 -365.5Q1713 -333 1713 -275V-81Q1713 -40 1724.5 -26Q1736 -12 1771 -12Q1774 -12 1774 -6Q1774 0 1771 0Q1753 0 1728 -1Q1703 -2 1675 -2Q1649 -2 1624 -1Q1599 0 1580 0ZM1311 0Q1308 0 1308 -6Q1308 -12 1311 -12Q1346 -12 1357 -26Q1368 -40 1368 -81V-274Q1368 -306 1361 -321Q1354 -336 1335 -336Q1326 -336 1313 -332Q1300 -328 1284 -321Q1280 -320 1278 -325.5Q1276 -331 1279 -332L1407 -394Q1411 -396 1413 -396Q1423 -396 1433.5 -373Q1444 -350 1444 -308V-81Q1444 -40 1455.5 -26Q1467 -12 1502 -12Q1505 -12 1505 -6Q1505 0 1502 0Q1484 0 1459 -1Q1434 -2 1406 -2Q1380 -2 1355 -1Q1330 0 1311 0Z M2232 -386Q2235 -386 2235 -380Q2235 -374 2232 -374Q2203 -374 2182 -351Q2161 -328 2144 -282L2028 28Q1992 124 1958.5 179.5Q1925 235 1890.5 258Q1856 281 1816 281Q1790 281 1774.5 270Q1759 259 1759 237Q1759 217 1771 207.5Q1783 198 1799 198Q1817 198 1827 204Q1837 210 1847 216.5Q1857 223 1873 223Q1897 223 1918.5 201.5Q1940 180 1964 128.5Q1988 77 2021 -13L2019 30L1855 -303Q1833 -347 1820.5 -360.5Q1808 -374 1790 -374Q1787 -374 1787 -380Q1787 -386 1790 -386Q1808 -386 1828 -385Q1848 -384 1866 -384Q1900 -384 1926.5 -385Q1953 -386 1974 -386Q1976 -386 1976 -380Q1976 -374 1974 -374Q1940 -374 1927 -366Q1914 -358 1925 -335L2057 -65L2027 -14L2120 -281Q2136 -328 2121 -351Q2106 -374 2059 -374Q2057 -374 2057 -380Q2057 -386 2059 -386Q2083 -386 2104.5 -385Q2126 -384 2160 -384Q2183 -384 2197.5 -385Q2212 -386 2232 -386Z"></path></g></g><g fill="#5E8D7A"><g transform="translate(59.42,136.01) scale(0.007577)"><path d="M580 -700V-252L76 -735V0H206V-448L709 35V-700Z M1183 -350Q1183 -419 1212 -473Q1241 -527 1292.5 -557.5Q1344 -588 1410 -588Q1478 -588 1528.5 -557.5Q1579 -527 1607.5 -473Q1636 -419 1636 -350Q1636 -281 1607 -227Q1578 -173 1527.5 -142.5Q1477 -112 1410 -112Q1344 -112 1292.5 -142.5Q1241 -173 1212 -227Q1183 -281 1183 -350ZM1042 -350Q1042 -271 1069.5 -204Q1097 -137 1146.5 -87.5Q1196 -38 1263 -10.5Q1330 17 1410 17Q1490 17 1557 -10.5Q1624 -38 1673.5 -87.5Q1723 -137 1750 -204Q1777 -271 1777 -350Q1777 -429 1750 -495.5Q1723 -562 1673 -611Q1623 -660 1556 -687Q1489 -714 1410 -714Q1332 -714 1264.5 -687Q1197 -660 1147.5 -611Q1098 -562 1070 -495.5Q1042 -429 1042 -350Z M2255 -406 2462 -65 2669 -406 2715 0H2854L2753 -735L2462 -274L2171 -735L2070 0H2209Z M3278 -167H3648L3629 -275H3298ZM3461 -485 3569 -235V-201L3661 0H3811L3461 -740L3111 0H3262L3356 -208L3355 -237Z M4109 -700V0H4246V-700ZM4343 0Q4452 0 4534 -43.5Q4616 -87 4661.5 -165.5Q4707 -244 4707 -350Q4707 -457 4661.5 -535Q4616 -613 4534 -656.5Q4452 -700 4343 -700H4194V-578H4339Q4387 -578 4429.5 -564Q4472 -550 4503.5 -522Q4535 -494 4552.5 -451.5Q4570 -409 4570 -350Q4570 -291 4552.5 -248.5Q4535 -206 4503.5 -178Q4472 -150 4429.5 -136Q4387 -122 4339 -122H4194V0Z M5664 -350Q5664 -422 5696 -474.5Q5728 -527 5780.5 -556Q5833 -585 5895 -585Q5945 -585 5984.5 -572Q6024 -559 6055.5 -537Q6087 -515 6110 -487V-640Q6068 -676 6017 -695Q5966 -714 5889 -714Q5810 -714 5742 -687.5Q5674 -661 5624.5 -612.5Q5575 -564 5547 -497Q5519 -430 5519 -350Q5519 -270 5547 -203Q5575 -136 5624.5 -87.5Q5674 -39 5742 -12.5Q5810 14 5889 14Q5966 14 6017 -5.5Q6068 -25 6110 -60V-213Q6087 -185 6055.5 -163Q6024 -141 5984.5 -128Q5945 -115 5895 -115Q5833 -115 5780.5 -144Q5728 -173 5696 -226Q5664 -279 5664 -350Z M6468 -700V-230Q6468 -170 6487.5 -123Q6507 -76 6542.5 -44.5Q6578 -13 6626.5 4Q6675 21 6731 21Q6788 21 6836 4Q6884 -13 6920 -44.5Q6956 -76 6975 -123Q6994 -170 6994 -230V-700H6861V-237Q6861 -176 6828.5 -138Q6796 -100 6731 -100Q6667 -100 6634.5 -138Q6602 -176 6602 -237V-700Z M7362 -700V0H7497V-700Z M7926 -231 7829 -163Q7853 -115 7893 -73.5Q7933 -32 7987 -7.5Q8041 17 8105 17Q8151 17 8194 2.5Q8237 -12 8271 -39Q8305 -66 8325 -105.5Q8345 -145 8345 -195Q8345 -241 8329.5 -275Q8314 -309 8289 -334.5Q8264 -360 8232 -377.5Q8200 -395 8167 -407Q8113 -426 8078 -444Q8043 -462 8026 -482.5Q8009 -503 8009 -529Q8009 -557 8031 -577.5Q8053 -598 8098 -598Q8131 -598 8156.5 -585Q8182 -572 8202 -551Q8222 -530 8236 -504L8341 -563Q8323 -600 8291 -634.5Q8259 -669 8211.5 -691.5Q8164 -714 8099 -714Q8035 -714 7983.5 -690Q7932 -666 7902 -623Q7872 -580 7872 -522Q7872 -472 7891 -437Q7910 -402 7939 -378Q7968 -354 8000.5 -338.5Q8033 -323 8058 -313Q8104 -297 8137 -281Q8170 -265 8187.5 -243.5Q8205 -222 8205 -186Q8205 -147 8176.5 -123.5Q8148 -100 8103 -100Q8065 -100 8033 -116Q8001 -132 7974.5 -162Q7948 -192 7926 -231Z M8682 -700V0H8817V-700Z M9694 -700V-252L9190 -735V0H9320V-448L9823 35V-700Z M10281 0H10634V-114H10281ZM10281 -586H10634V-700H10281ZM10281 -317H10614V-429H10281ZM10196 -700V0H10326V-700Z"></path></g></g></svg>