<svg xmlns="http://www.w3.org/2000/svg" viewBox="0 0 200 200"><circle cx="100" cy="100" r="93" fill="none" stroke="#1C3B34" stroke-width="1.4"></circle><circle cx="100" cy="100" r="86" fill="none" stroke="#1C3B34" stroke-width="1" stroke-dasharray="2.2 3.4"></circle><path d="M 50.8 70.8 A 57.6 57.6 0 0 1 149.2 70.8" fill="none" stroke="#1C3B34" stroke-width="1.65" stroke-linecap="round"></path><path d="M 50.8 129.2 A 57.6 57.6 0 0 0 149.2 129.2" fill="none" stroke="#1C3B34" stroke-width="1.65" stroke-linecap="round"></path><g fill="#1C3B34"><g transform="translate(36.08,110.87) scale(0.056338)"><path d="M227.0 12Q165.0 12 121.5 -15.0Q78.0 -42 56.0 -86.5Q34.0 -131 34.0 -181Q34.0 -241 62.5 -289.0Q91.0 -337 140.5 -366.0Q190.0 -395 253.0 -395Q311.0 -395 343.5 -366.5Q376.0 -338 376.0 -280Q376.0 -267 374.0 -259.5Q372.0 -252 365.0 -252H288.0Q291.0 -311 273.5 -343.0Q256.0 -375 217.0 -375Q171.0 -375 144.5 -333.5Q118.0 -292 118.0 -222Q118.0 -164 136.0 -121.0Q154.0 -78 189.0 -54.0Q224.0 -30 275.0 -30Q307.0 -30 328.0 -39.0Q349.0 -48 373.0 -61Q375.0 -63 378.5 -58.5Q382.0 -54 380.0 -51Q343.0 -17 306.0 -2.5Q269.0 12 227.0 12ZM91.0 -251 90.0 -267 313.0 -271V-252Z M604.0 12Q580.0 12 556.5 4.0Q533.0 -4 518.0 -23.0Q503.0 -42 503.0 -75V-304Q503.0 -326 498.5 -338.0Q494.0 -350 483.0 -354.5Q472.0 -359 452.0 -359Q448.0 -359 448.0 -366.5Q448.0 -374 452.0 -374Q498.0 -375 526.5 -396.0Q555.0 -417 565.0 -454Q566.0 -457 573.0 -457.0Q580.0 -457 580.0 -454V-109Q580.0 -68 600.5 -49.5Q621.0 -31 655.0 -31Q679.0 -31 699.5 -40.5Q720.0 -50 734.0 -60Q737.0 -63 741.0 -58.5Q745.0 -54 741.0 -51Q704.0 -18 672.0 -3.0Q640.0 12 604.0 12ZM710.0 -336Q670.0 -346 633.0 -349.0Q596.0 -352 554.0 -352V-376Q594.0 -376 632.5 -379.0Q671.0 -382 714.0 -386Q716.0 -386 718.5 -379.0Q721.0 -372 721.0 -362Q721.0 -353 717.5 -344.0Q714.0 -335 710.0 -336Z M783.0 0Q781.0 0 781.0 -6.0Q781.0 -12 783.0 -12Q818.0 -12 830.0 -26.0Q842.0 -40 842.0 -81V-593Q842.0 -628 835.5 -644.0Q829.0 -660 811.0 -660Q797.0 -660 770.0 -647Q766.0 -646 763.5 -651.5Q761.0 -657 763.0 -659L900.0 -724Q902.0 -725 902.5 -725.0Q903.0 -725 904.0 -725Q909.0 -725 913.0 -721.5Q917.0 -718 917.0 -714V-81Q917.0 -40 928.5 -26.0Q940.0 -12 975.0 -12Q979.0 -12 979.0 -6.0Q979.0 0 975.0 0Q956.0 0 932.0 -1.0Q908.0 -2 880.0 -2Q852.0 -2 827.0 -1.0Q802.0 0 783.0 0ZM1052.0 0Q1050.0 0 1050.0 -6.0Q1050.0 -12 1052.0 -12Q1087.0 -12 1099.0 -26.0Q1111.0 -40 1111.0 -81V-232Q1111.0 -343 1024.0 -343Q990.0 -343 955.5 -324.0Q921.0 -305 899.0 -273L894.0 -285Q933.0 -339 977.0 -368.0Q1021.0 -397 1070.0 -397Q1125.0 -397 1155.5 -364.0Q1186.0 -331 1186.0 -274V-81Q1186.0 -40 1197.5 -26.0Q1209.0 -12 1244.0 -12Q1248.0 -12 1248.0 -6.0Q1248.0 0 1244.0 0Q1225.0 0 1201.0 -1.0Q1177.0 -2 1149.0 -2Q1121.0 -2 1096.0 -1.0Q1071.0 0 1052.0 0Z M1580.0 0Q1577.0 0 1577.0 -6.0Q1577.0 -12 1580.0 -12Q1615.0 -12 1626.0 -26.0Q1637.0 -40 1637.0 -81V-234Q1637.0 -291 1616.5 -317.5Q1596.0 -344 1551.0 -344Q1518.0 -344 1483.5 -325.0Q1449.0 -306 1426.0 -273L1421.0 -285Q1461.0 -340 1504.5 -369.0Q1548.0 -398 1597.0 -398Q1653.0 -398 1683.0 -365.5Q1713.0 -333 1713.0 -275V-81Q1713.0 -40 1724.5 -26.0Q1736.0 -12 1771.0 -12Q1774.0 -12 1774.0 -6.0Q1774.0 0 1771.0 0Q1753.0 0 1728.0 -1.0Q1703.0 -2 1675.0 -2Q1649.0 -2 1624.0 -1.0Q1599.0 0 1580.0 0ZM1311.0 0Q1308.0 0 1308.0 -6.0Q1308.0 -12 1311.0 -12Q1346.0 -12 1357.0 -26.0Q1368.0 -40 1368.0 -81V-274Q1368.0 -306 1361.0 -321.0Q1354.0 -336 1335.0 -336Q1326.0 -336 1313.0 -332.0Q1300.0 -328 1284.0 -321Q1280.0 -320 1278.0 -325.5Q1276.0 -331 1279.0 -332L1407.0 -394Q1411.0 -396 1413.0 -396Q1423.0 -396 1433.5 -373.0Q1444.0 -350 1444.0 -308V-81Q1444.0 -40 1455.5 -26.0Q1467.0 -12 1502.0 -12Q1505.0 -12 1505.0 -6.0Q1505.0 0 1502.0 0Q1484.0 0 1459.0 -1.0Q1434.0 -2 1406.0 -2Q1380.0 -2 1355.0 -1.0Q1330.0 0 1311.0 0Z M2232.0 -386Q2235.0 -386 2235.0 -380.0Q2235.0 -374 2232.0 -374Q2203.0 -374 2182.0 -351.0Q2161.0 -328 2144.0 -282L2028.0 28Q1992.0 124 1958.5 179.5Q1925.0 235 1890.5 258.0Q1856.0 281 1816.0 281Q1790.0 281 1774.5 270.0Q1759.0 259 1759.0 237Q1759.0 217 1771.0 207.5Q1783.0 198 1799.0 198Q1817.0 198 1827.0 204.0Q1837.0 210 1847.0 216.5Q1857.0 223 1873.0 223Q1897.0 223 1918.5 201.5Q1940.0 180 1964.0 128.5Q1988.0 77 2021.0 -13L2019.0 30L1855.0 -303Q1833.0 -347 1820.5 -360.5Q1808.0 -374 1790.0 -374Q1787.0 -374 1787.0 -380.0Q1787.0 -386 1790.0 -386Q1808.0 -386 1828.0 -385.0Q1848.0 -384 1866.0 -384Q1900.0 -384 1926.5 -385.0Q1953.0 -386 1974.0 -386Q1976.0 -386 1976.0 -380.0Q1976.0 -374 1974.0 -374Q1940.0 -374 1927.0 -366.0Q1914.0 -358 1925.0 -335L2057.0 -65L2027.0 -14L2120.0 -281Q2136.0 -328 2121.0 -351.0Q2106.0 -374 2059.0 -374Q2057.0 -374 2057.0 -380.0Q2057.0 -386 2059.0 -386Q2083.0 -386 2104.5 -385.0Q2126.0 -384 2160.0 -384Q2183.0 -384 2197.5 -385.0Q2212.0 -386 2232.0 -386Z"></path></g></g><g fill="#1C3B34"><g transform="translate(59.42,136.01) scale(0.007577)"><path d="M580.0 -700V-252L76.0 -735V0H206.0V-448L709.0 35V-700Z M1183.0 -350Q1183.0 -419 1212.0 -473.0Q1241.0 -527 1292.5 -557.5Q1344.0 -588 1410.0 -588Q1478.0 -588 1528.5 -557.5Q1579.0 -527 1607.5 -473.0Q1636.0 -419 1636.0 -350Q1636.0 -281 1607.0 -227.0Q1578.0 -173 1527.5 -142.5Q1477.0 -112 1410.0 -112Q1344.0 -112 1292.5 -142.5Q1241.0 -173 1212.0 -227.0Q1183.0 -281 1183.0 -350ZM1042.0 -350Q1042.0 -271 1069.5 -204.0Q1097.0 -137 1146.5 -87.5Q1196.0 -38 1263.0 -10.5Q1330.0 17 1410.0 17Q1490.0 17 1557.0 -10.5Q1624.0 -38 1673.5 -87.5Q1723.0 -137 1750.0 -204.0Q1777.0 -271 1777.0 -350Q1777.0 -429 1750.0 -495.5Q1723.0 -562 1673.0 -611.0Q1623.0 -660 1556.0 -687.0Q1489.0 -714 1410.0 -714Q1332.0 -714 1264.5 -687.0Q1197.0 -660 1147.5 -611.0Q1098.0 -562 1070.0 -495.5Q1042.0 -429 1042.0 -350Z M2255.0 -406 2462.0 -65 2669.0 -406 2715.0 0H2854.0L2753.0 -735L2462.0 -274L2171.0 -735L2070.0 0H2209.0Z M3278.0 -167H3648.0L3629.0 -275H3298.0ZM3461.0 -485 3569.0 -235V-201L3661.0 0H3811.0L3461.0 -740L3111.0 0H3262.0L3356.0 -208L3355.0 -237Z M4109.0 -700V0H4246.0V-700ZM4343.0 0Q4452.0 0 4534.0 -43.5Q4616.0 -87 4661.5 -165.5Q4707.0 -244 4707.0 -350Q4707.0 -457 4661.5 -535.0Q4616.0 -613 4534.0 -656.5Q4452.0 -700 4343.0 -700H4194.0V-578H4339.0Q4387.0 -578 4429.5 -564.0Q4472.0 -550 4503.5 -522.0Q4535.0 -494 4552.5 -451.5Q4570.0 -409 4570.0 -350Q4570.0 -291 4552.5 -248.5Q4535.0 -206 4503.5 -178.0Q4472.0 -150 4429.5 -136.0Q4387.0 -122 4339.0 -122H4194.0V0Z M5664.0 -350Q5664.0 -422 5696.0 -474.5Q5728.0 -527 5780.5 -556.0Q5833.0 -585 5895.0 -585Q5945.0 -585 5984.5 -572.0Q6024.0 -559 6055.5 -537.0Q6087.0 -515 6110.0 -487V-640Q6068.0 -676 6017.0 -695.0Q5966.0 -714 5889.0 -714Q5810.0 -714 5742.0 -687.5Q5674.0 -661 5624.5 -612.5Q5575.0 -564 5547.0 -497.0Q5519.0 -430 5519.0 -350Q5519.0 -270 5547.0 -203.0Q5575.0 -136 5624.5 -87.5Q5674.0 -39 5742.0 -12.5Q5810.0 14 5889.0 14Q5966.0 14 6017.0 -5.5Q6068.0 -25 6110.0 -60V-213Q6087.0 -185 6055.5 -163.0Q6024.0 -141 5984.5 -128.0Q5945.0 -115 5895.0 -115Q5833.0 -115 5780.5 -144.0Q5728.0 -173 5696.0 -226.0Q5664.0 -279 5664.0 -350Z M6468.0 -700V-230Q6468.0 -170 6487.5 -123.0Q6507.0 -76 6542.5 -44.5Q6578.0 -13 6626.5 4.0Q6675.0 21 6731.0 21Q6788.0 21 6836.0 4.0Q6884.0 -13 6920.0 -44.5Q6956.0 -76 6975.0 -123.0Q6994.0 -170 6994.0 -230V-700H6861.0V-237Q6861.0 -176 6828.5 -138.0Q6796.0 -100 6731.0 -100Q6667.0 -100 6634.5 -138.0Q6602.0 -176 6602.0 -237V-700Z M7362.0 -700V0H7497.0V-700Z M7926.0 -231 7829.0 -163Q7853.0 -115 7893.0 -73.5Q7933.0 -32 7987.0 -7.5Q8041.0 17 8105.0 17Q8151.0 17 8194.0 2.5Q8237.0 -12 8271.0 -39.0Q8305.0 -66 8325.0 -105.5Q8345.0 -145 8345.0 -195Q8345.0 -241 8329.5 -275.0Q8314.0 -309 8289.0 -334.5Q8264.0 -360 8232.0 -377.5Q8200.0 -395 8167.0 -407Q8113.0 -426 8078.0 -444.0Q8043.0 -462 8026.0 -482.5Q8009.0 -503 8009.0 -529Q8009.0 -557 8031.0 -577.5Q8053.0 -598 8098.0 -598Q8131.0 -598 8156.5 -585.0Q8182.0 -572 8202.0 -551.0Q8222.0 -530 8236.0 -504L8341.0 -563Q8323.0 -600 8291.0 -634.5Q8259.0 -669 8211.5 -691.5Q8164.0 -714 8099.0 -714Q8035.0 -714 7983.5 -690.0Q7932.0 -666 7902.0 -623.0Q7872.0 -580 7872.0 -522Q7872.0 -472 7891.0 -437.0Q7910.0 -402 7939.0 -378.0Q7968.0 -354 8000.5 -338.5Q8033.0 -323 8058.0 -313Q8104.0 -297 8137.0 -281.0Q8170.0 -265 8187.5 -243.5Q8205.0 -222 8205.0 -186Q8205.0 -147 8176.5 -123.5Q8148.0 -100 8103.0 -100Q8065.0 -100 8033.0 -116.0Q8001.0 -132 7974.5 -162.0Q7948.0 -192 7926.0 -231Z M8682.0 -700V0H8817.0V-700Z M9694.0 -700V-252L9190.0 -735V0H9320.0V-448L9823.0 35V-700Z M10281.0 0H10634.0V-114H10281.0ZM10281.0 -586H10634.0V-700H10281.0ZM10281.0 -317H10614.0V-429H10281.0ZM10196.0 -700V0H10326.0V-700Z"></path></g></g></svg>