<svg xmlns="http://www.w3.org/2000/svg" width="1600" height="1000" viewBox="0 0 1600 1000" role="img"><rect width="1600" height="1000" fill="#F2EBDC"/><text x="90" y="110" fill="#1C3B34" font-family="Cormorant Garamond, Georgia, serif" font-size="64" font-weight="400" text-anchor="start" letter-spacing="0">Palette officielle Ethny</text><rect x="90" y="200" width="260" height="190" rx="14" fill="#1C3B34" stroke="#C9C5BB"/><text x="90" y="450" fill="#1C3B34" font-family="Jost, Arial, sans-serif" font-size="34">Vert principal</text><text x="90" y="496" fill="#285447" font-family="Jost, Arial, sans-serif" font-size="28">#1C3B34</text><rect x="450" y="200" width="260" height="190" rx="14" fill="#285447" stroke="#C9C5BB"/><text x="450" y="450" fill="#1C3B34" font-family="Jost, Arial, sans-serif" font-size="34">Vert fonce</text><text x="450" y="496" fill="#285447" font-family="Jost, Arial, sans-serif" font-size="28">#285447</text><rect x="810" y="200" width="260" height="190" rx="14" fill="#5E8D7A" stroke="#C9C5BB"/><text x="810" y="450" fill="#1C3B34" font-family="Jost, Arial, sans-serif" font-size="34">Vert clair</text><text x="810" y="496" fill="#285447" font-family="Jost, Arial, sans-serif" font-size="28">#5E8D7A</text><rect x="1170" y="200" width="260" height="190" rx="14" fill="#F2EBDC" stroke="#C9C5BB"/><text x="1170" y="450" fill="#1C3B34" font-family="Jost, Arial, sans-serif" font-size="34">Blanc casse</text><text x="1170" y="496" fill="#285447" font-family="Jost, Arial, sans-serif" font-size="28">#F2EBDC</text><rect x="90" y="530" width="260" height="190" rx="14" fill="#E7DDC8" stroke="#C9C5BB"/><text x="90" y="780" fill="#1C3B34" font-family="Jost, Arial, sans-serif" font-size="34">Beige</text><text x="90" y="826" fill="#285447" font-family="Jost, Arial, sans-serif" font-size="28">#E7DDC8</text><rect x="450" y="530" width="260" height="190" rx="14" fill="#C9C5BB" stroke="#C9C5BB"/><text x="450" y="780" fill="#1C3B34" font-family="Jost, Arial, sans-serif" font-size="34">Gris pierre</text><text x="450" y="826" fill="#285447" font-family="Jost, Arial, sans-serif" font-size="28">#C9C5BB</text><rect x="810" y="530" width="260" height="190" rx="14" fill="#2A2A2A" stroke="#C9C5BB"/><text x="810" y="780" fill="#1C3B34" font-family="Jost, Arial, sans-serif" font-size="34">Noir doux</text><text x="810" y="826" fill="#285447" font-family="Jost, Arial, sans-serif" font-size="28">#2A2A2A</text><rect x="1170" y="530" width="260" height="190" rx="14" fill="#FFFFFE" stroke="#C9C5BB"/><text x="1170" y="780" fill="#1C3B34" font-family="Jost, Arial, sans-serif" font-size="34">Blanc surface</text><text x="1170" y="826" fill="#285447" font-family="Jost, Arial, sans-serif" font-size="28">#FFFFFE</text></svg>
